<svg width="29" height="29" viewBox="0 0 29 29" fill="none" xmlns="http://www.w3.org/2000/svg">
<path d="M19.3333 25.375V22.9583C19.3333 21.6765 18.8241 20.4471 17.9177 19.5407C17.0113 18.6342 15.7819 18.125 14.5 18.125H7.25C5.96812 18.125 4.73874 18.6342 3.83232 19.5407C2.92589 20.4471 2.41667 21.6765 2.41667 22.9583V25.375" stroke="#E58C53" stroke-width="2.41667" stroke-linecap="round" stroke-linejoin="round"/>
<path d="M19.3333 3.78125C20.3698 4.04995 21.2877 4.65519 21.9429 5.50199C22.5982 6.34879 22.9537 7.3892 22.9537 8.45992C22.9537 9.53063 22.5982 10.571 21.9429 11.4178C21.2877 12.2646 20.3698 12.8699 19.3333 13.1386" stroke="#E58C53" stroke-width="2.41667" stroke-linecap="round" stroke-linejoin="round"/>
<path d="M26.5833 25.3761V22.9595C26.5825 21.8885 26.2261 20.8482 25.57 20.0018C24.9139 19.1554 23.9952 18.5509 22.9583 18.2832" stroke="#E58C53" stroke-width="2.41667" stroke-linecap="round" stroke-linejoin="round"/>
<path d="M10.875 13.2917C13.5444 13.2917 15.7083 11.1277 15.7083 8.45833C15.7083 5.78896 13.5444 3.625 10.875 3.625C8.20562 3.625 6.04166 5.78896 6.04166 8.45833C6.04166 11.1277 8.20562 13.2917 10.875 13.2917Z" stroke="#E58C53" stroke-width="2.41667" stroke-linecap="round" stroke-linejoin="round"/>
</svg>
