<svg width="42" height="42" viewBox="0 0 42 42" fill="none" xmlns="http://www.w3.org/2000/svg">
<path fill-rule="evenodd" clip-rule="evenodd" d="M17.1115 36.7501H24.8885C30.3503 36.7501 33.082 36.7501 35.0438 35.4638C35.8904 34.9093 36.6195 34.1933 37.1893 33.3568C38.5 31.4318 38.5 28.7491 38.5 23.3871C38.5 18.0251 38.5 15.3423 37.1893 13.4173C36.6195 12.5808 35.8904 11.8648 35.0438 11.3103C33.7838 10.4826 32.2053 10.1868 29.7885 10.0818C28.6353 10.0818 27.643 9.22433 27.4173 8.11308C27.2447 7.2991 26.7965 6.56965 26.1482 6.048C25.5 5.52635 24.6915 5.2445 23.8595 5.25008H18.1405C16.4115 5.25008 14.9223 6.44883 14.5828 8.11308C14.357 9.22433 13.3648 10.0818 12.2115 10.0818C9.7965 10.1868 8.218 10.4843 6.95625 11.3103C6.11019 11.865 5.38173 12.581 4.8125 13.4173C3.5 15.3423 3.5 18.0233 3.5 23.3871C3.5 28.7508 3.5 31.4301 4.81075 33.3568C5.37775 34.1898 6.10575 34.9056 6.95625 35.4638C8.918 36.7501 11.6498 36.7501 17.1115 36.7501ZM21 16.2278C16.9733 16.2278 13.7078 19.4321 13.7078 23.3853C13.7078 27.3386 16.975 30.5481 21 30.5481C25.025 30.5481 28.2923 27.3421 28.2923 23.3888C28.2923 19.4356 25.025 16.2278 21 16.2278ZM21 19.0908C18.585 19.0908 16.625 21.0141 16.625 23.3871C16.625 25.7583 18.585 27.6816 21 27.6816C23.415 27.6816 25.375 25.7583 25.375 23.3871C25.375 21.0158 23.415 19.0908 21 19.0908ZM29.2635 17.6593C29.2635 16.8683 29.9163 16.2278 30.723 16.2278H32.6655C33.4705 16.2278 34.125 16.8683 34.125 17.6593C34.1213 18.0424 33.9657 18.4083 33.6924 18.6768C33.419 18.9452 33.0503 19.0941 32.6673 19.0908H30.723C30.5332 19.0927 30.3448 19.0571 30.1688 18.9862C29.9927 18.9152 29.8323 18.8103 29.6968 18.6774C29.5612 18.5444 29.4532 18.3861 29.3789 18.2114C29.3045 18.0368 29.2653 17.8492 29.2635 17.6593Z" fill="#B153E5"/>
</svg>
