<svg width="46" height="46" viewBox="0 0 46 46" fill="none" xmlns="http://www.w3.org/2000/svg">
<circle cx="23" cy="23" r="23" fill="#F7F1EC"/>
<path fill-rule="evenodd" clip-rule="evenodd" d="M20.0372 34.9999H25.9625C30.1238 34.9999 32.2052 34.9999 33.6998 34.0199C34.3449 33.5975 34.9004 33.052 35.3345 32.4146C36.3332 30.9479 36.3332 28.9039 36.3332 24.8186C36.3332 20.7333 36.3332 18.6893 35.3345 17.2226C34.9004 16.5853 34.3449 16.0398 33.6998 15.6173C32.7398 14.9866 31.5372 14.7613 29.6958 14.6813C28.8172 14.6813 28.0612 14.0279 27.8892 13.1813C27.7577 12.5611 27.4162 12.0053 26.9223 11.6079C26.4284 11.2104 25.8124 10.9957 25.1785 10.9999H20.8212C19.5038 10.9999 18.3692 11.9133 18.1105 13.1813C17.9385 14.0279 17.1825 14.6813 16.3038 14.6813C14.4638 14.7613 13.2612 14.9879 12.2998 15.6173C11.6552 16.0399 11.1002 16.5854 10.6665 17.2226C9.6665 18.6893 9.6665 20.7319 9.6665 24.8186C9.6665 28.9053 9.6665 30.9466 10.6652 32.4146C11.0972 33.0493 11.6518 33.5946 12.2998 34.0199C13.7945 34.9999 15.8758 34.9999 20.0372 34.9999ZM22.9998 19.3639C19.9318 19.3639 17.4438 21.8053 17.4438 24.8173C17.4438 27.8293 19.9332 30.2746 22.9998 30.2746C26.0665 30.2746 28.5558 27.8319 28.5558 24.8199C28.5558 21.8079 26.0665 19.3639 22.9998 19.3639ZM22.9998 21.5453C21.1598 21.5453 19.6665 23.0106 19.6665 24.8186C19.6665 26.6253 21.1598 28.0906 22.9998 28.0906C24.8398 28.0906 26.3332 26.6253 26.3332 24.8186C26.3332 23.0119 24.8398 21.5453 22.9998 21.5453ZM29.2958 20.4546C29.2958 19.8519 29.7932 19.3639 30.4078 19.3639H31.8878C32.5012 19.3639 32.9998 19.8519 32.9998 20.4546C32.997 20.7465 32.8785 21.0253 32.6702 21.2298C32.462 21.4343 32.181 21.5478 31.8892 21.5453H30.4078C30.2632 21.5467 30.1197 21.5196 29.9856 21.4655C29.8514 21.4115 29.7292 21.3315 29.6259 21.2303C29.5227 21.129 29.4404 21.0084 29.3837 20.8753C29.3271 20.7422 29.2972 20.5992 29.2958 20.4546Z" fill="#B153E5"/>
</svg>
