<svg width="46" height="46" viewBox="0 0 46 46" fill="none" xmlns="http://www.w3.org/2000/svg">
<circle cx="23" cy="23" r="23" fill="#F7F1EC"/>
<path fill-rule="evenodd" clip-rule="evenodd" d="M20.0372 35.0001H25.9625C30.1238 35.0001 32.2052 35.0001 33.6998 34.0201C34.3449 33.5976 34.9004 33.0521 35.3345 32.4147C36.3332 30.9481 36.3332 28.9041 36.3332 24.8187C36.3332 20.7334 36.3332 18.6894 35.3345 17.2227C34.9004 16.5854 34.3449 16.0399 33.6998 15.6174C32.7398 14.9867 31.5372 14.7614 29.6958 14.6814C28.8172 14.6814 28.0612 14.0281 27.8892 13.1814C27.7577 12.5612 27.4162 12.0054 26.9223 11.608C26.4284 11.2105 25.8124 10.9958 25.1785 11.0001H20.8212C19.5038 11.0001 18.3692 11.9134 18.1105 13.1814C17.9385 14.0281 17.1825 14.6814 16.3038 14.6814C14.4638 14.7614 13.2612 14.9881 12.2998 15.6174C11.6552 16.04 11.1002 16.5855 10.6665 17.2227C9.6665 18.6894 9.6665 20.7321 9.6665 24.8187C9.6665 28.9054 9.6665 30.9467 10.6652 32.4147C11.0972 33.0494 11.6518 33.5947 12.2998 34.0201C13.7945 35.0001 15.8758 35.0001 20.0372 35.0001ZM22.9998 19.3641C19.9318 19.3641 17.4438 21.8054 17.4438 24.8174C17.4438 27.8294 19.9332 30.2747 22.9998 30.2747C26.0665 30.2747 28.5558 27.8321 28.5558 24.8201C28.5558 21.8081 26.0665 19.3641 22.9998 19.3641ZM22.9998 21.5454C21.1598 21.5454 19.6665 23.0107 19.6665 24.8187C19.6665 26.6254 21.1598 28.0907 22.9998 28.0907C24.8398 28.0907 26.3332 26.6254 26.3332 24.8187C26.3332 23.0121 24.8398 21.5454 22.9998 21.5454ZM29.2958 20.4547C29.2958 19.8521 29.7932 19.3641 30.4078 19.3641H31.8878C32.5012 19.3641 32.9998 19.8521 32.9998 20.4547C32.997 20.7466 32.8785 21.0254 32.6702 21.2299C32.462 21.4344 32.181 21.5479 31.8892 21.5454H30.4078C30.2632 21.5468 30.1197 21.5197 29.9856 21.4657C29.8514 21.4116 29.7292 21.3317 29.6259 21.2304C29.5227 21.1291 29.4404 21.0085 29.3837 20.8754C29.3271 20.7423 29.2972 20.5994 29.2958 20.4547Z" fill="#B153E5"/>
</svg>
