<svg width="25" height="24" viewBox="0 0 25 24" fill="none" xmlns="http://www.w3.org/2000/svg">
<path d="M21.8998 12C22.4669 12 22.9322 11.551 22.8757 11.002C22.6389 8.70621 21.5937 6.56074 19.9175 4.92936C18.2412 3.29798 16.037 2.28108 13.6785 2.05104C13.1135 1.99604 12.6533 2.44904 12.6533 3.00104V11.001C12.6533 11.2663 12.7616 11.5206 12.9542 11.7081C13.1469 11.8957 13.4081 12.001 13.6806 12.001L21.8998 12Z" stroke="#B153E5" stroke-width="2" stroke-linecap="round" stroke-linejoin="round"/>
<path d="M22.1157 15.89C21.4621 17.3944 20.44 18.7202 19.1385 19.7513C17.837 20.7823 16.2959 21.4874 14.6499 21.8047C13.0039 22.1221 11.303 22.0421 9.69609 21.5718C8.08916 21.1014 6.62504 20.255 5.43175 19.1066C4.23847 17.9582 3.35234 16.5427 2.85085 14.9839C2.34936 13.4251 2.24777 11.7704 2.55496 10.1646C2.86215 8.55874 3.56877 7.05058 4.61305 5.77199C5.65732 4.49339 7.00745 3.48327 8.5454 2.82996" stroke="#B153E5" stroke-width="2" stroke-linecap="round" stroke-linejoin="round"/>
</svg>
