<svg width="120" height="120" viewBox="0 0 120 120" fill="none" xmlns="http://www.w3.org/2000/svg">
<path d="M57.5 65.375V86.345C57.5 87.0583 57.7383 87.6533 58.215 88.13C58.6917 88.6067 59.2867 88.845 60 88.845C60.7133 88.845 61.3083 88.6067 61.785 88.13C62.2617 87.6533 62.5 87.0583 62.5 86.345V65.375L71.23 74.105C71.4733 74.3483 71.7467 74.5317 72.05 74.655C72.3567 74.775 72.6617 74.8317 72.965 74.825C73.2683 74.815 73.585 74.7483 73.915 74.625C74.2417 74.505 74.525 74.3217 74.765 74.075C75.2983 73.525 75.57 72.9367 75.58 72.31C75.59 71.68 75.32 71.09 74.77 70.54L62.825 58.595C62.3917 58.1617 61.9467 57.8567 61.49 57.68C61.0367 57.5033 60.54 57.415 60 57.415C59.46 57.415 58.9633 57.5033 58.51 57.68C58.0567 57.8567 57.6117 58.1617 57.175 58.595L45.23 70.54C44.7433 71.0267 44.4883 71.6 44.465 72.26C44.4417 72.92 44.7067 73.5267 45.26 74.08C45.81 74.61 46.4 74.88 47.03 74.89C47.66 74.9 48.2483 74.63 48.795 74.08L57.5 65.375ZM33.08 105C30.7767 105 28.855 104.23 27.315 102.69C25.775 101.15 25.0033 99.2283 25 96.925V23.075C25 20.775 25.7717 18.855 27.315 17.315C28.8583 15.775 30.78 15.0033 33.08 15H69.145C70.2217 15 71.2683 15.2167 72.285 15.65C73.3017 16.0833 74.1717 16.665 74.895 17.395L92.6 35.1C93.3233 35.8267 93.9033 36.6967 94.34 37.71C94.7767 38.7233 94.995 39.77 94.995 40.85V96.92C94.995 99.22 94.2233 101.142 92.68 102.685C91.1367 104.228 89.2183 105 86.925 105H33.08ZM70 35.96C70 37.1233 70.3833 38.0867 71.15 38.85C71.9167 39.6133 72.88 39.9967 74.04 40H90L70 20V35.96Z" fill="#6B6B6B"/>
</svg>
