<svg width="126" height="126" viewBox="0 0 126 126" fill="none" xmlns="http://www.w3.org/2000/svg">
<path fill-rule="evenodd" clip-rule="evenodd" d="M51.3345 110.25H74.6655C91.0508 110.25 99.246 110.25 105.131 106.391C107.671 104.728 109.859 102.58 111.568 100.07C115.5 94.2952 115.5 86.247 115.5 70.161C115.5 54.075 115.5 46.0268 111.568 40.2518C109.859 37.7422 107.671 35.5943 105.131 33.9307C101.351 31.4475 96.6158 30.5603 89.3655 30.2453C85.9058 30.2453 82.929 27.6728 82.2518 24.339C81.7342 21.8971 80.3894 19.7087 78.4447 18.1437C76.5 16.5788 74.0746 15.7332 71.5785 15.75H54.4215C49.2345 15.75 44.7668 19.3463 43.7483 24.339C43.071 27.6728 40.0943 30.2453 36.6345 30.2453C29.3895 30.5603 24.654 31.4527 20.8688 33.9307C18.3306 35.5948 16.1452 37.7427 14.4375 40.2518C10.5 46.0268 10.5 54.0698 10.5 70.161C10.5 86.2523 10.5 94.29 14.4323 100.07C16.1333 102.569 18.3173 104.716 20.8688 106.391C26.754 110.25 34.9493 110.25 51.3345 110.25ZM63 48.6833C50.9198 48.6833 41.1233 58.296 41.1233 70.1558C41.1233 82.0155 50.925 91.644 63 91.644C75.075 91.644 84.8768 82.026 84.8768 70.1662C84.8768 58.3065 75.075 48.6833 63 48.6833ZM63 57.2723C55.755 57.2723 49.875 63.042 49.875 70.161C49.875 77.2748 55.755 83.0445 63 83.0445C70.245 83.0445 76.125 77.2748 76.125 70.161C76.125 63.0473 70.245 57.2723 63 57.2723ZM87.7905 52.9777C87.7905 50.6047 89.7488 48.6833 92.169 48.6833H97.9965C100.412 48.6833 102.375 50.6047 102.375 52.9777C102.364 54.127 101.897 55.2248 101.077 56.03C100.257 56.8352 99.151 57.282 98.0018 57.2723H92.169C91.5995 57.2778 91.0345 57.1711 90.5063 56.9583C89.978 56.7455 89.4969 56.4307 89.0903 56.0319C88.6837 55.6331 88.3596 55.1581 88.1366 54.6341C87.9136 54.1101 87.796 53.5472 87.7905 52.9777Z" fill="#6B6B6B"/>
</svg>
