<svg width="399" height="339" viewBox="0 0 399 339" fill="none" xmlns="http://www.w3.org/2000/svg">
<g clip-path="url(#clip0_141_521)">
<path d="M339.968 116.196C344.237 124.596 347.601 133.26 357.017 133.26C361.539 133.26 365.875 131.463 369.073 128.262C372.27 125.062 374.067 120.722 374.067 116.196C374.067 111.67 372.27 107.33 369.073 104.13C365.875 100.93 361.539 99.132 357.017 99.132C347.448 99.012 332.022 100.561 339.968 116.196Z" fill="#2F2E41"/>
<path d="M353.369 321.417L346.082 323.042L336.352 295.687L347.106 293.288L353.369 321.417Z" fill="#A0616A"/>
<path d="M356.801 328.072L333.307 333.312L333.241 333.015C332.973 331.813 332.945 330.57 333.157 329.357C333.369 328.144 333.818 326.985 334.478 325.945C335.138 324.906 335.996 324.007 337.003 323.299C338.01 322.592 339.146 322.09 340.347 321.822L340.348 321.822L354.697 318.622L356.801 328.072Z" fill="#2F2E41"/>
<path d="M375.014 331.194H367.549L363.997 302.375L375.015 302.376L375.014 331.194Z" fill="#A0616A"/>
<path d="M376.918 338.437L352.847 338.437V338.132C352.847 336.9 353.089 335.681 353.56 334.543C354.031 333.406 354.721 332.372 355.591 331.501C356.461 330.63 357.494 329.94 358.631 329.469C359.767 328.997 360.986 328.755 362.216 328.755H362.217L376.918 328.755L376.918 338.437Z" fill="#2F2E41"/>
<path d="M375.064 316.092H365.536C364.874 316.09 364.235 315.849 363.737 315.414C363.238 314.978 362.913 314.377 362.821 313.721L354.185 246.856C354.156 246.646 354.056 246.454 353.901 246.31C353.747 246.167 353.547 246.081 353.337 246.068C353.127 246.054 352.918 246.114 352.747 246.237C352.576 246.361 352.452 246.539 352.398 246.743L347.279 265.836L351.893 309.321C351.971 309.991 351.799 310.666 351.411 311.218C351.022 311.769 350.444 312.158 349.787 312.309L342.23 314.054C341.558 314.206 340.854 314.101 340.256 313.759C339.658 313.417 339.21 312.863 339 312.207L326.829 269.933C325.849 266.835 325.512 263.569 325.839 260.336L329.647 222.225L329.935 222.239L380.775 224.691L377.802 313.446C377.78 314.157 377.481 314.831 376.97 315.325C376.458 315.82 375.774 316.095 375.064 316.092Z" fill="#2F2E41"/>
<path d="M356.178 133.593C364.438 133.593 371.133 126.892 371.133 118.625C371.133 110.358 364.438 103.656 356.178 103.656C347.918 103.656 341.223 110.358 341.223 118.625C341.223 126.892 347.918 133.593 356.178 133.593Z" fill="#A0616A"/>
<path d="M379.636 228.796C379.587 228.796 379.538 228.795 379.488 228.792L328.799 226.064C328.38 226.042 327.972 225.923 327.606 225.718C327.24 225.513 326.926 225.227 326.688 224.881C326.451 224.535 326.295 224.139 326.235 223.724C326.174 223.309 326.209 222.885 326.338 222.485L330.349 210.017C334.645 196.649 335.378 182.39 332.479 168.651C331.719 165.056 331.734 161.34 332.525 157.751C333.315 154.162 334.861 150.784 337.061 147.842C339.224 144.94 341.981 142.534 345.148 140.784C348.315 139.035 351.819 137.982 355.425 137.697C355.673 137.677 355.923 137.66 356.173 137.644C359.988 137.419 363.805 138.048 367.346 139.487C370.888 140.926 374.063 143.138 376.642 145.961C379.22 148.784 381.137 152.148 382.251 155.807C383.365 159.466 383.649 163.328 383.083 167.111L379.549 190.863L382.366 225.833C382.397 226.211 382.349 226.59 382.225 226.948C382.102 227.306 381.906 227.634 381.649 227.913C381.393 228.191 381.081 228.413 380.735 228.565C380.389 228.717 380.014 228.796 379.636 228.796Z" fill="#B153E5"/>
<path d="M317.262 231.953C318.003 231.45 318.625 230.791 319.085 230.022C319.544 229.253 319.829 228.393 319.92 227.502C320.011 226.61 319.906 225.71 319.612 224.864C319.318 224.018 318.842 223.246 318.218 222.604L327.978 203.14L316.749 204.47L309.202 222.75C308.194 223.871 307.631 225.324 307.621 226.832C307.612 228.34 308.155 229.8 309.148 230.934C310.142 232.069 311.516 232.799 313.012 232.986C314.507 233.174 316.019 232.806 317.262 231.953Z" fill="#A0616A"/>
<path d="M384.263 235.125C383.616 234.506 383.113 233.752 382.788 232.917C382.464 232.082 382.326 231.186 382.385 230.292C382.444 229.398 382.698 228.528 383.129 227.743C383.561 226.958 384.159 226.277 384.882 225.748L378.509 204.925L389.358 208.115L393.746 227.4C394.553 228.674 394.865 230.2 394.623 231.689C394.381 233.178 393.602 234.526 392.433 235.478C391.264 236.43 389.787 236.92 388.281 236.855C386.775 236.79 385.346 236.174 384.263 235.125Z" fill="#A0616A"/>
<path d="M383.208 224.216C382.544 224.219 381.901 223.978 381.402 223.539C380.902 223.1 380.58 222.494 380.495 221.834L375.425 183.547L367.335 153.628C366.993 152.363 366.943 151.038 367.188 149.751C367.433 148.464 367.967 147.249 368.75 146.199C369.533 145.149 370.544 144.291 371.706 143.689C372.869 143.088 374.153 142.758 375.462 142.726C377.535 142.682 379.555 143.383 381.157 144.702C382.758 146.021 383.834 147.87 384.19 149.915L396.243 220.576C396.308 220.96 396.291 221.353 396.193 221.73C396.094 222.107 395.917 222.458 395.672 222.761C395.428 223.064 395.122 223.311 394.774 223.486C394.427 223.662 394.046 223.761 393.657 223.777L383.327 224.214C383.288 224.215 383.248 224.216 383.208 224.216Z" fill="#B153E5"/>
<path d="M322.695 219.916C322.499 219.916 322.304 219.896 322.112 219.855L312.001 217.697C311.62 217.615 311.261 217.454 310.948 217.223C310.635 216.992 310.374 216.697 310.183 216.358C309.993 216.018 309.877 215.642 309.843 215.254C309.809 214.866 309.858 214.475 309.986 214.108L333.668 146.456C334.362 144.502 335.732 142.86 337.531 141.827C339.329 140.795 341.437 140.441 343.473 140.828C344.758 141.079 345.969 141.618 347.015 142.406C348.061 143.194 348.914 144.209 349.511 145.376C350.107 146.542 350.431 147.828 350.458 149.138C350.485 150.448 350.214 151.747 349.666 152.937L336.68 181.119L325.302 217.982C325.132 218.542 324.787 219.032 324.318 219.38C323.848 219.728 323.28 219.916 322.695 219.916Z" fill="#B153E5"/>
<path d="M340.308 110.165C343.726 112.522 347.782 113.777 351.933 113.761C350.452 114.788 348.766 115.482 346.992 115.795C352.511 116.98 358.214 117.012 363.746 115.889C364.975 115.692 366.162 115.284 367.253 114.683C367.797 114.379 368.27 113.964 368.643 113.465C369.016 112.966 369.28 112.394 369.418 111.786C369.785 109.684 368.149 107.775 366.448 106.488C363.845 104.548 360.843 103.211 357.66 102.574C354.478 101.938 351.193 102.017 348.045 102.807C345.989 103.339 343.929 104.238 342.594 105.89C341.259 107.542 340.863 110.09 342.135 111.791L340.308 110.165Z" fill="#2F2E41"/>
<path d="M262.269 1.20284e-09H5.30981C3.90195 0.00121032 2.55211 0.561495 1.55659 1.55785C0.561074 2.55421 0.00124478 3.90522 0 5.3143V255.988C0.00125283 257.397 0.561076 258.749 1.55659 259.745C2.55211 260.741 3.90195 261.302 5.30981 261.303H27.8394V259.785H5.30981C4.30407 259.784 3.33985 259.384 2.62868 258.672C1.91752 257.96 1.51747 256.995 1.5163 255.988V5.3143C1.51747 4.30769 1.91752 3.34263 2.62868 2.63084C3.33985 1.91906 4.30407 1.51867 5.30981 1.5175H262.269C263.276 1.51742 264.241 1.91722 264.954 2.6291C265.666 3.34097 266.067 4.30673 266.069 5.3143V255.988C266.069 256.73 265.851 257.455 265.441 258.073C265.077 258.616 264.583 259.061 264.004 259.365C263.468 259.642 262.873 259.786 262.269 259.785H239.739V261.303H262.269C263.036 261.303 263.795 261.136 264.492 260.814C265.189 260.492 265.808 260.023 266.306 259.438C266.348 259.392 266.387 259.343 266.422 259.292C266.739 258.904 266.995 258.47 267.183 258.006C267.45 257.367 267.587 256.681 267.585 255.988V5.3143C267.583 3.90429 267.022 2.55258 266.026 1.55612C265.029 0.559668 263.678 -2.99603e-05 262.269 1.20284e-09Z" fill="#E58C53"/>
<path d="M266.823 21.3018H0.756409V22.821H266.823V21.3018Z" fill="#E58C53"/>
<path d="M13.6585 15.9542C16.1735 15.9542 18.2122 13.9136 18.2122 11.3965C18.2122 8.87939 16.1735 6.83887 13.6585 6.83887C11.1436 6.83887 9.10486 8.87939 9.10486 11.3965C9.10486 13.9136 11.1436 15.9542 13.6585 15.9542Z" fill="#E58C53"/>
<path d="M26.7503 15.9542C29.2653 15.9542 31.304 13.9136 31.304 11.3965C31.304 8.87939 29.2653 6.83887 26.7503 6.83887C24.2354 6.83887 22.1967 8.87939 22.1967 11.3965C22.1967 13.9136 24.2354 15.9542 26.7503 15.9542Z" fill="#E58C53"/>
<path d="M39.8422 15.9542C42.3571 15.9542 44.3959 13.9136 44.3959 11.3965C44.3959 8.87939 42.3571 6.83887 39.8422 6.83887C37.3273 6.83887 35.2885 8.87939 35.2885 11.3965C35.2885 13.9136 37.3273 15.9542 39.8422 15.9542Z" fill="#E58C53"/>
<path d="M198.032 56.4679H69.5522C67.4528 56.4679 65.4393 55.6332 63.9548 54.1474C62.4703 52.6616 61.6364 50.6465 61.6364 48.5453C61.6364 46.444 62.4703 44.4289 63.9548 42.9431C65.4393 41.4573 67.4528 40.6226 69.5522 40.6226H198.032C200.131 40.6226 202.144 41.4573 203.629 42.9431C205.113 44.4289 205.947 46.444 205.947 48.5453C205.947 50.6465 205.113 52.6616 203.629 54.1474C202.144 55.6332 200.131 56.4679 198.032 56.4679ZM69.5522 41.8414C67.7757 41.8414 66.0721 42.5477 64.816 43.8049C63.5599 45.0621 62.8542 46.7673 62.8542 48.5453C62.8542 50.3232 63.5599 52.0283 64.816 53.2856C66.0721 54.5428 67.7757 55.2491 69.5522 55.2491H198.032C199.808 55.2491 201.512 54.5428 202.768 53.2856C204.024 52.0283 204.73 50.3232 204.73 48.5453C204.73 46.7673 204.024 45.0621 202.768 43.8049C201.512 42.5477 199.808 41.8414 198.032 41.8414H69.5522Z" fill="#E58C53"/>
<path d="M230.608 167.138H36.9755C34.2311 167.135 31.6 166.043 29.6594 164.101C27.7188 162.158 26.6272 159.525 26.6241 156.778V94.6153C26.6272 91.8685 27.7188 89.2351 29.6594 87.2928C31.6 85.3505 34.2311 84.258 36.9755 84.2549H230.608C233.353 84.258 235.984 85.3505 237.924 87.2928C239.865 89.2351 240.957 91.8685 240.96 94.6153V156.778C240.957 159.525 239.865 162.158 237.924 164.101C235.984 166.043 233.353 167.135 230.608 167.138ZM36.9755 85.4738C34.554 85.4765 32.2324 86.4405 30.5201 88.1543C28.8078 89.8681 27.8446 92.1917 27.8419 94.6153V156.778C27.8446 159.202 28.8078 161.525 30.5201 163.239C32.2324 164.953 34.554 165.917 36.9755 165.92H230.608C233.03 165.917 235.351 164.953 237.064 163.239C238.776 161.525 239.739 159.202 239.742 156.778V94.6153C239.739 92.1917 238.776 89.8681 237.064 88.1543C235.351 86.4405 233.03 85.4765 230.608 85.4738H36.9755Z" fill="#E58C53"/>
<path d="M159.184 122.345H91.5951C90.3032 122.345 89.0642 121.831 88.1506 120.917C87.2371 120.002 86.7239 118.762 86.7239 117.469C86.7239 116.176 87.2371 114.936 88.1506 114.022C89.0642 113.107 90.3032 112.594 91.5951 112.594H159.184C160.476 112.594 161.715 113.107 162.628 114.022C163.542 114.936 164.055 116.176 164.055 117.469C164.055 118.762 163.542 120.002 162.628 120.917C161.715 121.831 160.476 122.345 159.184 122.345Z" fill="#B153E5"/>
<path d="M221.901 138.799H91.5951C90.3032 138.799 89.0642 138.286 88.1506 137.371C87.2371 136.457 86.7239 135.217 86.7239 133.924C86.7239 132.631 87.2371 131.391 88.1506 130.476C89.0642 129.562 90.3032 129.048 91.5951 129.048H221.901C223.193 129.048 224.432 129.562 225.346 130.476C226.259 131.391 226.773 132.631 226.773 133.924C226.773 135.217 226.259 136.457 225.346 137.371C224.432 138.286 223.193 138.799 221.901 138.799Z" fill="#B153E5"/>
<path d="M59.0784 143.98C69.1672 143.98 77.3457 135.794 77.3457 125.697C77.3457 115.599 69.1672 107.414 59.0784 107.414C48.9897 107.414 40.8112 115.599 40.8112 125.697C40.8112 135.794 48.9897 143.98 59.0784 143.98Z" fill="#B153E5"/>
<path d="M221.894 158.606H204.845C203.553 158.606 202.314 158.093 201.4 157.178C200.487 156.264 199.974 155.024 199.974 153.731C199.974 152.438 200.487 151.198 201.4 150.283C202.314 149.369 203.553 148.855 204.845 148.855H221.894C223.186 148.855 224.425 149.369 225.339 150.283C226.252 151.198 226.765 152.438 226.765 153.731C226.765 155.024 226.252 156.264 225.339 157.178C224.425 158.093 223.186 158.606 221.894 158.606Z" fill="white"/>
<path d="M221.894 158.606H204.845C203.553 158.606 202.314 158.093 201.4 157.178C200.487 156.264 199.974 155.024 199.974 153.731C199.974 152.438 200.487 151.198 201.4 150.283C202.314 149.369 203.553 148.855 204.845 148.855H221.894C223.186 148.855 224.425 149.369 225.339 150.283C226.252 151.198 226.765 152.438 226.765 153.731C226.765 155.024 226.252 156.264 225.339 157.178C224.425 158.093 223.186 158.606 221.894 158.606Z" fill="#B153E5"/>
<path d="M230.606 196.392H36.973C34.2288 196.395 31.5982 197.488 29.6577 199.43C27.7173 201.373 26.6255 204.005 26.6216 206.752V268.915C26.6255 271.661 27.7173 274.294 29.6577 276.236C31.5982 278.179 34.2288 279.271 36.973 279.275H230.606C233.35 279.272 235.981 278.18 237.922 276.238C239.863 274.295 240.954 271.662 240.957 268.915V206.752C240.954 204.005 239.863 201.372 237.922 199.429C235.981 197.487 233.35 196.394 230.606 196.392ZM239.739 268.915C239.737 271.339 238.774 273.663 237.062 275.377C235.35 277.091 233.027 278.054 230.606 278.056H36.973C34.5515 278.053 32.2301 277.089 30.5178 275.376C28.8056 273.662 27.8423 271.338 27.8394 268.915V206.752C27.8423 204.328 28.8056 202.005 30.5178 200.291C32.2301 198.578 34.5515 197.613 36.973 197.61H230.606C233.027 197.612 235.35 198.576 237.062 200.29C238.774 202.004 239.737 204.328 239.739 206.752V268.915Z" fill="#E58C53"/>
<path d="M159.184 234.481H91.5951C90.3032 234.481 89.0642 233.968 88.1506 233.053C87.2371 232.139 86.7239 230.899 86.7239 229.606C86.7239 228.313 87.2371 227.073 88.1506 226.158C89.0642 225.244 90.3032 224.73 91.5951 224.73H159.184C160.476 224.73 161.715 225.244 162.628 226.158C163.542 227.073 164.055 228.313 164.055 229.606C164.055 230.899 163.542 232.139 162.628 233.053C161.715 233.968 160.476 234.481 159.184 234.481Z" fill="#B153E5"/>
<path d="M221.901 250.936H91.5951C90.3032 250.936 89.0642 250.422 88.1506 249.508C87.2371 248.594 86.7239 247.354 86.7239 246.061C86.7239 244.767 87.2371 243.527 88.1506 242.613C89.0642 241.699 90.3032 241.185 91.5951 241.185H221.901C223.193 241.185 224.432 241.699 225.346 242.613C226.259 243.527 226.773 244.767 226.773 246.061C226.773 247.354 226.259 248.594 225.346 249.508C224.432 250.422 223.193 250.936 221.901 250.936Z" fill="#B153E5"/>
<path d="M59.0784 256.117C69.1672 256.117 77.3457 247.931 77.3457 237.833C77.3457 227.736 69.1672 219.55 59.0784 219.55C48.9897 219.55 40.8112 227.736 40.8112 237.833C40.8112 247.931 48.9897 256.117 59.0784 256.117Z" fill="#B153E5"/>
<path d="M221.894 270.743H204.845C203.553 270.743 202.314 270.229 201.4 269.315C200.487 268.4 199.974 267.16 199.974 265.867C199.974 264.574 200.487 263.334 201.4 262.42C202.314 261.505 203.553 260.992 204.845 260.992H221.894C223.186 260.992 224.425 261.505 225.339 262.42C226.252 263.334 226.765 264.574 226.765 265.867C226.765 267.16 226.252 268.4 225.339 269.315C224.425 270.229 223.186 270.743 221.894 270.743Z" fill="#B153E5"/>
<path d="M398.391 339H313.144C312.983 339 312.828 338.936 312.713 338.822C312.599 338.707 312.535 338.552 312.535 338.391C312.535 338.229 312.599 338.074 312.713 337.96C312.828 337.845 312.983 337.781 313.144 337.781H398.391C398.553 337.781 398.707 337.845 398.822 337.96C398.936 338.074 399 338.229 399 338.391C399 338.552 398.936 338.707 398.822 338.822C398.707 338.936 398.553 339 398.391 339Z" fill="#E58C53"/>
</g>
<defs>
<clipPath id="clip0_141_521">
<rect width="399" height="339" fill="white"/>
</clipPath>
</defs>
</svg>
