<svg width="402" height="426" viewBox="0 0 402 426" fill="none" xmlns="http://www.w3.org/2000/svg">
<path d="M375.327 282.176H178.04V29.8843H375.327V282.176Z" fill="#E6E6E6"/>
<path d="M368.728 277.799H217.354V34.2334H368.728V277.799Z" fill="white"/>
<path d="M339.77 196.78H253.776C252.907 196.78 252.203 197.485 252.203 198.354V198.354C252.203 199.224 252.907 199.929 253.776 199.929H339.77C340.639 199.929 341.343 199.224 341.343 198.354V198.354C341.343 197.485 340.639 196.78 339.77 196.78Z" fill="#B153E5"/>
<path d="M339.77 204.966H253.776C252.907 204.966 252.203 205.671 252.203 206.54V206.541C252.203 207.41 252.907 208.115 253.776 208.115H339.77C340.639 208.115 341.343 207.41 341.343 206.541V206.54C341.343 205.671 340.639 204.966 339.77 204.966Z" fill="#B153E5"/>
<path d="M339.77 213.153H253.776C252.907 213.153 252.203 213.858 252.203 214.727V214.728C252.203 215.597 252.907 216.302 253.776 216.302H339.77C340.639 216.302 341.343 215.597 341.343 214.728V214.727C341.343 213.858 340.639 213.153 339.77 213.153Z" fill="#B153E5"/>
<path d="M246.792 200.87C247.926 200.87 248.846 199.95 248.846 198.815C248.846 197.68 247.926 196.76 246.792 196.76C245.658 196.76 244.739 197.68 244.739 198.815C244.739 199.95 245.658 200.87 246.792 200.87Z" fill="#B153E5"/>
<path d="M339.77 161.502H253.776C252.907 161.502 252.203 162.207 252.203 163.077V163.077C252.203 163.947 252.907 164.651 253.776 164.651H339.77C340.639 164.651 341.343 163.947 341.343 163.077V163.077C341.343 162.207 340.639 161.502 339.77 161.502Z" fill="#E58C53"/>
<path d="M339.77 169.688H253.776C252.907 169.688 252.203 170.393 252.203 171.263V171.263C252.203 172.133 252.907 172.837 253.776 172.837H339.77C340.639 172.837 341.343 172.133 341.343 171.263V171.263C341.343 170.393 340.639 169.688 339.77 169.688Z" fill="#E58C53"/>
<path d="M339.77 177.876H253.776C252.907 177.876 252.203 178.581 252.203 179.45V179.451C252.203 180.32 252.907 181.025 253.776 181.025H339.77C340.639 181.025 341.343 180.32 341.343 179.451V179.45C341.343 178.581 340.639 177.876 339.77 177.876Z" fill="#E58C53"/>
<path d="M246.792 165.251C247.926 165.251 248.846 164.331 248.846 163.196C248.846 162.061 247.926 161.141 246.792 161.141C245.658 161.141 244.739 162.061 244.739 163.196C244.739 164.331 245.658 165.251 246.792 165.251Z" fill="#E58C53"/>
<path d="M339.77 232.398H253.776C252.907 232.398 252.203 233.103 252.203 233.973V233.973C252.203 234.843 252.907 235.547 253.776 235.547H339.77C340.639 235.547 341.343 234.843 341.343 233.973V233.973C341.343 233.103 340.639 232.398 339.77 232.398Z" fill="#E58C53"/>
<path d="M339.77 240.585H253.776C252.907 240.585 252.203 241.29 252.203 242.16V242.16C252.203 243.03 252.907 243.734 253.776 243.734H339.77C340.639 243.734 341.343 243.03 341.343 242.16V242.16C341.343 241.29 340.639 240.585 339.77 240.585Z" fill="#E58C53"/>
<path d="M339.77 248.771H253.776C252.907 248.771 252.203 249.476 252.203 250.346V250.346C252.203 251.216 252.907 251.92 253.776 251.92H339.77C340.639 251.92 341.343 251.216 341.343 250.346V250.346C341.343 249.476 340.639 248.771 339.77 248.771Z" fill="#E58C53"/>
<path d="M246.792 236.147C247.926 236.147 248.846 235.227 248.846 234.092C248.846 232.957 247.926 232.037 246.792 232.037C245.658 232.037 244.739 232.957 244.739 234.092C244.739 235.227 245.658 236.147 246.792 236.147Z" fill="#E58C53"/>
<path d="M209.786 46.8633H185.693C184.117 46.8633 182.839 48.1418 182.839 49.719V49.7195C182.839 51.2967 184.117 52.5752 185.693 52.5752H209.786C211.362 52.5752 212.64 51.2967 212.64 49.7195V49.719C212.64 48.1418 211.362 46.8633 209.786 46.8633Z" fill="#B153E5"/>
<path d="M209.786 70.9971H185.693C184.117 70.9971 182.839 72.2756 182.839 73.8528V73.8533C182.839 75.4305 184.117 76.709 185.693 76.709H209.786C211.362 76.709 212.64 75.4305 212.64 73.8533V73.8528C212.64 72.2756 211.362 70.9971 209.786 70.9971Z" fill="#B153E5"/>
<path d="M209.786 95.1318H185.693C184.117 95.1318 182.839 96.4104 182.839 97.9876V97.9881C182.839 99.5652 184.117 100.844 185.693 100.844H209.786C211.362 100.844 212.64 99.5652 212.64 97.9881V97.9876C212.64 96.4104 211.362 95.1318 209.786 95.1318Z" fill="#B153E5"/>
<path d="M209.786 119.265H185.693C184.117 119.265 182.839 120.544 182.839 122.121V122.121C182.839 123.699 184.117 124.977 185.693 124.977H209.786C211.362 124.977 212.64 123.699 212.64 122.121V122.121C212.64 120.544 211.362 119.265 209.786 119.265Z" fill="#B153E5"/>
<path d="M209.786 143.4H185.693C184.117 143.4 182.839 144.678 182.839 146.256V146.256C182.839 147.833 184.117 149.112 185.693 149.112H209.786C211.362 149.112 212.64 147.833 212.64 146.256V146.256C212.64 144.678 211.362 143.4 209.786 143.4Z" fill="#B153E5"/>
<path d="M178.039 61.7859C178.039 62.3283 178.215 62.7642 178.433 62.7642H374.932C375.151 62.7642 375.326 62.3283 375.326 61.7859C375.326 61.2435 375.151 60.8076 374.932 60.8076H178.433C178.215 60.8076 178.039 61.243 178.039 61.7859Z" fill="#D6D6E3"/>
<path d="M178.039 85.9197C178.039 86.4621 178.215 86.898 178.433 86.898H374.932C375.151 86.898 375.326 86.4621 375.326 85.9197C375.326 85.3773 375.151 84.9414 374.932 84.9414H178.433C178.215 84.9414 178.039 85.3768 178.039 85.9197Z" fill="#D6D6E3"/>
<path d="M178.039 110.054C178.039 110.597 178.215 111.033 178.433 111.033H374.932C375.151 111.033 375.326 110.597 375.326 110.054C375.326 109.512 375.151 109.076 374.932 109.076H178.433C178.215 109.076 178.039 109.512 178.039 110.054Z" fill="#D6D6E3"/>
<path d="M178.039 134.188C178.039 134.731 178.215 135.167 178.433 135.167H374.932C375.151 135.167 375.326 134.731 375.326 134.188C375.326 133.646 375.151 133.21 374.932 133.21H178.433C178.215 133.21 178.039 133.645 178.039 134.188Z" fill="#D6D6E3"/>
<path d="M339.77 120.547H253.776C252.907 120.547 252.203 121.252 252.203 122.122V122.122C252.203 122.991 252.907 123.696 253.776 123.696H339.77C340.639 123.696 341.343 122.991 341.343 122.122V122.122C341.343 121.252 340.639 120.547 339.77 120.547Z" fill="#E58C53"/>
<path d="M339.77 96.4126H253.776C252.907 96.4126 252.203 97.1174 252.203 97.9868V97.9873C252.203 98.8567 252.907 99.5615 253.776 99.5615H339.77C340.639 99.5615 341.343 98.8567 341.343 97.9873V97.9868C341.343 97.1174 340.639 96.4126 339.77 96.4126Z" fill="#E58C53"/>
<path d="M339.77 72.2783H253.776C252.907 72.2783 252.203 72.9831 252.203 73.8525V73.853C252.203 74.7224 252.907 75.4272 253.776 75.4272H339.77C340.639 75.4272 341.343 74.7224 341.343 73.853V73.8525C341.343 72.9831 340.639 72.2783 339.77 72.2783Z" fill="#E58C53"/>
<path d="M339.77 45.2886H253.776C252.907 45.2886 252.203 45.9934 252.203 46.8628V46.8633C252.203 47.7326 252.907 48.4374 253.776 48.4374H339.77C340.639 48.4374 341.343 47.7326 341.343 46.8633V46.8628C341.343 45.9934 340.639 45.2886 339.77 45.2886Z" fill="#E58C53"/>
<path d="M243.57 382.511C235.291 388.815 225.204 395.2 215.286 398.21C212.427 399.104 209.477 399.675 206.491 399.911C203.699 400.135 200.89 399.918 198.166 399.265C191.009 397.486 184.37 394.369 177.946 390.728C175.848 389.536 173.773 388.29 171.711 387.017C168.344 384.937 165.011 382.784 161.669 380.683C161.169 380.365 160.671 380.053 160.171 379.743H160.168C159.361 379.237 158.553 378.738 157.742 378.246C157.599 378.158 157.457 378.073 157.311 377.985C155.78 377.057 154.222 376.151 152.638 375.265C152.443 375.159 152.249 375.05 152.055 374.944C148.99 373.244 145.84 371.703 142.617 370.326C140.5 369.435 138.356 368.632 136.191 367.946H136.188C135.36 367.686 134.529 367.44 133.695 367.216C131.194 366.53 128.645 366.031 126.07 365.724C122.522 365.295 118.933 365.323 115.392 365.809C115.152 365.842 114.915 365.876 114.676 365.915C105.092 367.449 96.3455 372.622 86.7194 373.84C86.407 373.88 86.0977 373.916 85.7853 373.943C85.6518 373.956 85.5184 373.971 85.385 373.98C82.5876 374.219 79.7724 374.15 76.9901 373.774C69.217 372.749 61.6472 369.569 54.8324 365.56C38.9011 356.189 25.9813 341.785 18.1263 325.104C16.7774 322.245 15.5799 319.317 14.5385 316.332C11.627 308.056 10.0236 299.377 9.78609 290.607C9.04911 260.18 26.3452 229.652 53.501 215.891C80.6598 202.129 116.386 206.68 138.289 227.821C151.576 240.646 159.264 258.024 169.263 273.55C179.263 289.073 193.474 303.902 211.805 306.164C221.143 307.316 230.914 305.087 239.864 307.986C244.82 309.593 249.048 312.667 252.453 316.584C254.743 319.242 256.659 322.2 258.149 325.376C259.241 327.673 260.127 330.061 260.797 332.513C260.921 332.965 261.036 333.417 261.148 333.869C265.607 352.072 258.483 371.154 243.57 382.511Z" fill="#F2F2F2"/>
<path d="M94.4289 349.559H65.9204C61.6492 349.559 58.1868 353.02 58.1868 357.29V357.29C58.1868 361.56 61.6492 365.021 65.9204 365.021H94.4289C98.7001 365.021 102.163 361.56 102.163 357.29C102.163 353.02 98.7001 349.559 94.4289 349.559Z" fill="#3F3D56"/>
<path d="M85.7851 361.079V373.943C82.8567 374.226 79.9053 374.169 76.99 373.773V361.079H85.7851Z" fill="#3F3D56"/>
<path d="M115.392 365.809C115.152 365.842 114.915 365.876 114.676 365.915C105.092 367.449 96.3455 372.621 86.7194 373.84C86.407 373.88 86.0976 373.916 85.7853 373.943C85.6518 373.955 85.5184 373.971 85.3849 373.98C83.0345 371.679 80.6841 369.229 78.4762 366.691C77.2782 365.318 76.1197 363.917 75.0309 362.498C72.2043 358.836 69.8084 355.07 68.2253 351.371C68.386 349.598 67.2821 345.496 66.7544 342.355L66.7513 342.352C66.5269 341.033 66.4056 339.887 66.5178 339.15C67.1608 334.899 70.6333 335.387 71.7009 331.222C72.6639 330.423 73.6892 329.702 74.7671 329.066C74.946 328.96 75.128 328.854 75.316 328.748L86.9013 320.744L91.3292 325.085L98.0681 331.695L105.371 338.853L99.1721 345.114C99.1721 345.114 104.352 351.083 110.409 359.042C112.034 361.179 113.724 363.462 115.392 365.809Z" fill="#2F2E41"/>
<path d="M215.286 361.079V398.21C212.427 399.104 209.477 399.674 206.491 399.911V361.079H215.286Z" fill="#3F3D56"/>
<path d="M226.659 358.047H198.151C193.88 358.047 190.417 361.509 190.417 365.779V365.779C190.417 370.048 193.88 373.51 198.151 373.51H226.659C230.931 373.51 234.393 370.048 234.393 365.779C234.393 361.509 230.931 358.047 226.659 358.047Z" fill="#3F3D56"/>
<path d="M157.311 377.985C155.779 377.057 154.222 376.151 152.637 375.265C152.443 375.159 152.249 375.05 152.055 374.944L153.098 374.498L155.913 373.288L155.94 373.276L155.971 373.379L157.311 377.985Z" fill="#FFB6B6"/>
<path d="M161.669 380.683C161.169 380.365 160.672 380.053 160.171 379.743H160.168C159.361 379.237 158.553 378.738 157.742 378.246C157.599 378.158 157.457 378.073 157.311 377.985C155.78 377.057 154.222 376.151 152.638 375.265C152.444 375.159 152.249 375.05 152.055 374.944C148.99 373.244 145.84 371.703 142.617 370.326C140.5 369.435 138.356 368.632 136.191 367.946H136.188L134.486 365.1L126.828 352.278L125.145 349.461C125.145 349.461 119.404 351.159 111.279 352.787C108.322 353.381 105.053 353.964 101.623 354.455C97.956 354.976 94.1104 355.392 90.2891 355.592C88.4664 355.689 86.6497 355.737 84.8604 355.722C80.2353 355.692 75.7923 355.258 71.9012 354.227C70.6031 353.009 66.6908 351.35 63.8885 349.831H63.8854C62.7087 349.195 61.7321 348.585 61.2196 348.042C58.2656 344.92 60.7889 342.485 58.1625 339.077C58.1272 337.827 58.1911 336.576 58.3536 335.336C58.3809 335.13 58.4082 334.921 58.4415 334.708L59.2695 320.653L65.42 319.84L74.7793 318.603L84.918 317.263L86.0341 326.001C86.0341 326.001 93.9285 325.601 103.931 325.734C119.995 325.952 141.492 327.553 144.404 334.423C144.676 335.069 144.949 335.721 145.222 336.373C145.871 337.931 146.514 339.498 147.151 341.072C149.459 346.772 151.661 352.527 153.672 357.966C154.921 361.349 156.098 364.611 157.181 367.664C158.051 370.12 158.858 372.443 159.595 374.58C160.268 376.533 160.878 378.331 161.421 379.943C161.506 380.195 161.587 380.444 161.669 380.683Z" fill="#2F2E41"/>
<path d="M105.09 295.522L85.6636 279.029L98.3028 266.241L107.121 280.68L139.807 287.158C140.789 286.418 141.966 285.981 143.193 285.898C144.421 285.816 145.645 286.092 146.718 286.694C147.791 287.295 148.666 288.196 149.236 289.286C149.805 290.375 150.046 291.607 149.927 292.831C149.809 294.055 149.337 295.218 148.568 296.179C147.8 297.139 146.769 297.855 145.6 298.24C144.432 298.624 143.177 298.661 141.988 298.344C140.8 298.028 139.729 297.373 138.906 296.459L105.09 295.522Z" fill="#A0616A"/>
<path d="M68.4948 257.352C66.2497 264.654 87.6317 282.068 87.6317 282.068C87.8693 280.315 99.9921 295.43 100.817 294.061C103.161 290.171 105.74 280.554 108.446 279.325C109.994 278.622 101.116 268.852 101.116 268.852C101.116 268.852 96.5872 262.862 90.6077 255.271C88.9571 253.093 86.7821 251.369 84.2854 250.258C81.7886 249.147 79.0512 248.685 76.328 248.916C76.328 248.916 70.7399 250.051 68.4948 257.352Z" fill="#E58C53"/>
<path d="M77.9487 241.188C85.2054 241.188 91.088 235.307 91.088 228.053C91.088 220.799 85.2054 214.918 77.9487 214.918C70.692 214.918 64.8093 220.799 64.8093 228.053C64.8093 235.307 70.692 241.188 77.9487 241.188Z" fill="#A0616A"/>
<path d="M84.5183 249.87C87.349 251.552 89.0424 254.643 90.0144 257.789C91.814 263.612 92.8973 269.633 93.2402 275.718L94.2669 293.936L106.982 332.728C95.9623 342.049 54.5393 334.846 54.5393 334.846C54.5393 334.846 53.2678 334.423 54.5393 333.151C55.8109 331.88 57.0487 333.007 55.7772 331.735C54.5057 330.464 55.3822 331.88 55.8061 330.609C56.2299 329.338 55.8061 330.185 55.3822 329.762C54.9584 329.338 58.6635 325.525 58.6635 325.525L55.2727 303.258L51.0342 258.344C56.1204 251.988 66.3494 248.242 66.3494 248.242L68.9925 243.486L82.2077 244.543L84.5183 249.87Z" fill="#E58C53"/>
<path d="M88.7799 221.075C89.8011 221.836 90.5577 222.899 90.9431 224.113C91.0912 222.129 91.1006 220.137 90.9712 218.152C90.8164 216.757 89.834 216.444 88.6965 216.08C87.6692 215.752 86.5075 215.381 86.1949 214.026C82.0646 210.01 74.8747 210.212 69.9541 211.613C67.2465 212.384 65.6886 213.375 65.5492 213.955L65.5203 214.075L65.4103 214.13C63.3233 215.173 62.917 218.467 62.9438 221.047C62.9947 225.907 64.6734 231.428 65.6191 231.876C65.6692 231.9 65.6819 231.89 65.7035 231.872C67.1275 230.735 68.8649 231.959 69.6284 232.624C70.0787 229.603 71.5286 226.821 73.7467 224.72C75.9647 222.62 78.8228 221.323 81.8646 221.037C82.8579 220.941 83.8434 220.776 84.8137 220.542C85.3059 220.415 85.8119 220.349 86.3203 220.345C87.1955 220.332 88.0538 220.586 88.7799 221.075Z" fill="#2F2E41"/>
<path d="M72.2238 315.312L68.2045 313.254C67.9892 313.101 67.8362 312.875 67.7735 312.618C67.7109 312.362 67.7428 312.091 67.8633 311.856C67.9838 311.62 68.185 311.436 68.4301 311.337C68.6752 311.238 68.9478 311.23 69.1982 311.315L73.2175 313.373C73.4328 313.526 73.5858 313.752 73.6484 314.009C73.7111 314.265 73.6792 314.536 73.5587 314.772C73.4381 315.007 73.237 315.191 72.9919 315.29C72.7468 315.389 72.4742 315.397 72.2238 315.312Z" fill="#B153E5"/>
<path d="M58.6966 309.799L52.0847 285.192L69.7535 281.848L68.8033 298.738L92.0186 322.635C93.2476 322.584 94.4647 322.893 95.5215 323.522C96.5782 324.151 97.429 325.075 97.97 326.179C98.5111 327.283 98.719 328.521 98.5685 329.741C98.4179 330.962 97.9154 332.112 97.1223 333.052C96.3291 333.992 95.2795 334.681 94.1015 335.035C92.9235 335.388 91.6679 335.392 90.4879 335.045C89.3079 334.698 88.2544 334.015 87.4559 333.079C86.6574 332.144 86.1484 330.997 85.991 329.777L58.6966 309.799Z" fill="#A0616A"/>
<path d="M50.2766 257.602C44.2792 262.336 51.9769 288.811 51.9769 288.811C53.1687 287.503 54.5536 306.827 56.0103 306.169C60.1505 304.299 67.739 297.851 70.6645 298.376C72.3375 298.677 70.5847 285.594 70.5847 285.594C70.5847 285.594 70.2623 278.093 69.6564 268.45C69.5357 265.72 68.7261 263.066 67.3031 260.733C65.8801 258.401 63.8898 256.466 61.5176 255.109C61.5176 255.109 56.274 252.869 50.2766 257.602Z" fill="#E58C53"/>
<path d="M258.149 325.376L18.1261 325.103C16.7773 322.244 15.5797 319.317 14.5383 316.332L252.453 316.584C254.743 319.242 256.659 322.2 258.149 325.376Z" fill="#3F3D56"/>
<path d="M181.701 388.99C180.461 389.591 179.209 390.17 177.946 390.727C175.848 389.536 173.773 388.29 171.711 387.016L179.36 383.657L181.701 388.99Z" fill="#FFB6B6"/>
<path d="M237.468 347.212C236.225 348.879 234.942 350.513 233.62 352.114C232.4 353.591 231.149 355.039 229.865 356.459C229.334 357.047 228.797 357.632 228.249 358.211C227.239 359.294 226.206 360.358 225.152 361.404C223.253 362.001 219.408 363.053 215.286 364.035C212.287 364.748 209.142 365.424 206.491 365.855C205.007 366.121 203.506 366.281 202 366.334C200.21 366.349 198.394 366.3 196.571 366.203C194.515 366.094 192.455 365.924 190.42 365.706C185.128 365.151 180.003 364.287 175.581 363.399C173.961 363.077 172.439 362.75 171.038 362.432C168.384 361.834 166.164 361.276 164.556 360.852C162.746 360.379 161.715 360.073 161.715 360.073L157.181 367.665L154.827 371.603L153.099 374.498L152.638 375.265C152.443 375.159 152.249 375.05 152.055 374.944C148.99 373.244 145.84 371.703 142.617 370.327C140.5 369.435 138.356 368.632 136.191 367.947H136.188C135.36 367.686 134.529 367.44 133.695 367.216C133.955 366.516 134.219 365.81 134.486 365.1C134.984 363.775 135.491 362.438 136.009 361.089C137.128 358.166 138.286 355.201 139.478 352.251C140.455 349.828 141.45 347.415 142.456 345.035C142.92 343.937 143.864 342.973 145.183 342.127C145.813 341.73 146.471 341.377 147.151 341.072C150.927 339.353 156.489 338.235 162.619 337.516C163.125 337.458 163.635 337.401 164.147 337.346C169.221 336.813 174.604 336.537 179.639 336.409C182.159 336.346 184.591 336.321 186.854 336.318C187.585 336.318 188.295 336.32 188.986 336.324H188.989C190.854 336.334 192.571 336.361 194.081 336.391C194.375 336.397 194.66 336.406 194.939 336.412H194.942C195.13 336.415 195.315 336.421 195.497 336.425C198.8 336.509 200.826 336.612 200.826 336.612L201.611 330.452L201.772 329.209L201.924 328.026V328.023L201.942 327.875L202.066 327.872L204.25 327.829L222.605 327.471L232.631 327.274L231.042 334.084L228.418 345.32C228.685 347.097 237.559 345.705 237.468 347.212Z" fill="#2F2E41"/>
<path d="M183.963 387.869C183.214 388.251 182.459 388.627 181.701 388.991C180.46 389.591 179.209 390.17 177.946 390.728C175.847 389.536 173.773 388.29 171.711 387.017C168.344 384.937 165.011 382.784 161.669 380.683C161.169 380.365 160.671 380.053 160.171 379.743H160.168C158.791 377.7 157.387 375.572 155.97 373.38C155.949 373.349 155.931 373.319 155.913 373.289C155.549 372.731 155.187 372.169 154.827 371.603C152.562 368.056 150.284 364.357 148.073 360.579L153.672 357.966L164.08 353.109L165.876 352.272L171.037 362.432L175.641 371.494L176.666 373.51L183.963 387.869Z" fill="#2F2E41"/>
<path d="M185.532 339.092L212.069 313.508L219.425 292.688L208.575 287.972C203.003 293.309 196.979 309.93 196.979 309.93L178.718 333.155C178.575 333.204 178.433 333.256 178.293 333.318C177.471 333.68 176.756 334.249 176.217 334.968C175.679 335.688 175.335 336.534 175.219 337.425C175.104 338.316 175.22 339.222 175.557 340.056C175.894 340.889 176.44 341.621 177.142 342.181C177.845 342.742 178.68 343.112 179.568 343.255C180.455 343.398 181.365 343.31 182.208 343C183.052 342.689 183.801 342.166 184.383 341.482C184.965 340.797 185.361 339.974 185.532 339.092Z" fill="#FFB8B8"/>
<path d="M205.523 290.297L219.284 294.664L219.336 294.656C224.458 293.798 228.708 285.435 231.372 278.57C232.248 276.306 232.232 273.794 231.326 271.541C230.42 269.289 228.693 267.464 226.493 266.436C224.865 265.688 223.06 265.411 221.282 265.635C219.505 265.859 217.826 266.576 216.434 267.704L209.368 273.477L205.523 290.297Z" fill="#B153E5"/>
<path d="M237.413 347.519L237.493 347.412C241.787 341.719 235.915 327.622 235.027 325.577L239.019 324.395L238.323 316.796L237.988 313.408L241.092 310.461L241.103 310.386L243.237 295.199L246.031 285.147C247.083 281.347 247.106 277.335 246.095 273.524C245.084 269.713 243.077 266.239 240.28 263.459L234.57 257.791L227.729 247.087L216.259 246.791L212.135 254.116C208.299 254.898 204.86 257.001 202.416 260.058C199.971 263.115 198.677 266.932 198.759 270.845L199.147 290.344L195.032 314.504L194.916 318.893L190.877 323.154L191.624 327.462L188.602 328.665L187.124 334.787C186.559 335.493 182.83 340.205 182.796 341.519C182.791 341.716 182.932 341.91 183.239 342.13C185.652 343.856 199.142 347.596 205.213 345.348C211.68 342.954 237.026 347.449 237.281 347.495L237.413 347.519Z" fill="#B153E5"/>
<path d="M220.992 243.51C229.385 243.51 236.188 236.709 236.188 228.319C236.188 219.929 229.385 213.128 220.992 213.128C212.6 213.128 205.797 219.929 205.797 228.319C205.797 236.709 212.6 243.51 220.992 243.51Z" fill="#FFB8B8"/>
<path d="M219.139 243.713C221.492 243.749 223.844 243.585 226.169 243.221C228.474 242.753 233.63 238.976 235.067 236.703C236.135 235.014 236.818 232.377 237.202 230.463C237.721 227.929 237.701 225.315 237.144 222.789C236.588 220.263 235.507 217.883 233.971 215.801C233.381 214.931 232.567 214.236 231.614 213.79C231.529 213.757 231.443 213.728 231.355 213.703C229.966 213.337 228.719 212.566 227.772 211.487C227.589 211.268 227.39 211.064 227.177 210.874C226.107 209.971 224.839 209.335 223.476 209.016C221.276 208.428 218.092 209.012 214.013 210.754C211.964 211.63 209.723 211.313 207.998 210.939C207.902 210.921 207.802 210.928 207.709 210.959C207.615 210.991 207.532 211.047 207.467 211.121C206.734 211.81 205.767 212.195 204.761 212.2C204.144 212.227 203.498 213.08 202.716 214.192C202.539 214.445 202.332 214.739 202.183 214.919L202.163 214.574L201.814 214.958C201.266 215.562 200.88 216.295 200.691 217.088C200.503 217.881 200.518 218.709 200.736 219.495C200.954 220.28 201.367 220.998 201.937 221.581C202.507 222.164 203.215 222.594 203.996 222.829C204.616 222.994 205.251 223.096 205.891 223.131C206.279 223.166 206.681 223.202 207.065 223.269C208.299 223.522 209.447 224.09 210.396 224.919C211.345 225.747 212.063 226.807 212.48 227.996C212.578 228.271 212.739 228.519 212.948 228.722C213.158 228.925 213.412 229.077 213.69 229.166C213.968 229.256 214.263 229.28 214.551 229.237C214.84 229.195 215.115 229.086 215.356 228.921C215.756 228.609 216.226 228.398 216.726 228.307C217.225 228.217 217.74 228.248 218.224 228.398C218.643 228.631 218.97 229.001 219.148 229.446C219.365 229.941 219.725 230.361 220.182 230.651C221.743 231.456 221.851 235.022 221.29 237.995C220.75 240.86 219.681 242.933 218.691 243.036C217.929 243.115 217.842 243.169 217.787 243.303L217.738 243.424L217.823 243.537C218.244 243.689 218.693 243.749 219.139 243.713Z" fill="#2F2E41"/>
<path d="M209.296 285.704L203.437 274.027C194.933 274.608 178.054 284.437 178.054 284.437L146.119 291.206C145.173 290.843 144.148 290.735 143.147 290.893C142.146 291.051 141.204 291.471 140.416 292.109C139.629 292.747 139.024 293.581 138.661 294.527C138.298 295.473 138.192 296.498 138.351 297.498C138.511 298.499 138.932 299.44 139.571 300.226C140.21 301.013 141.045 301.617 141.992 301.978C142.938 302.339 143.964 302.445 144.965 302.284C145.965 302.123 146.906 301.702 147.692 301.062L188.315 298.151L209.296 285.704Z" fill="#FFB8B8"/>
<path d="M206.933 287.621L222.235 276.254L224.93 266.544C225.452 264.635 225.43 262.619 224.866 260.723C224.302 258.827 223.219 257.126 221.739 255.813C219.721 254.046 217.107 253.111 214.425 253.198C211.744 253.284 209.196 254.385 207.296 256.278C201.537 262.024 194.97 270.04 196.38 275.598L196.395 275.655L206.933 287.621Z" fill="#B153E5"/>
<path d="M187.991 318.027H147.048V323.484H187.991V318.027Z" fill="white"/>
<path d="M83.359 318.027H42.416V323.484H83.359V318.027Z" fill="white"/>
<path d="M88.1399 291.783V317.767C88.1402 318.098 88.2719 318.415 88.5061 318.649C88.7403 318.884 89.0579 319.015 89.3891 319.016H127.907C128.238 319.015 128.556 318.884 128.79 318.649C129.024 318.415 129.156 318.098 129.156 317.767V291.783C129.156 291.452 129.024 291.135 128.79 290.901C128.555 290.667 128.238 290.536 127.907 290.535H89.3891C89.0582 290.536 88.7409 290.667 88.5067 290.901C88.2726 291.135 88.1407 291.452 88.1399 291.783Z" fill="#3F3D56"/>
<path d="M89.0435 292.106V317.447C89.0438 317.623 89.1142 317.793 89.2393 317.918C89.3645 318.043 89.5341 318.114 89.7111 318.114H127.587C127.763 318.114 127.933 318.043 128.058 317.918C128.183 317.793 128.254 317.623 128.254 317.447V292.106C128.254 291.929 128.184 291.759 128.059 291.634C127.934 291.509 127.764 291.438 127.587 291.438H89.7111C89.5339 291.438 89.3641 291.509 89.2389 291.634C89.1138 291.759 89.0435 291.929 89.0435 292.106Z" fill="#2F2E41"/>
<path d="M87.3342 322.834C87.4048 322.923 87.4945 322.994 87.5966 323.043C87.6986 323.092 87.8105 323.117 87.9236 323.116H129.167C129.28 323.116 129.392 323.091 129.493 323.042C129.595 322.994 129.685 322.923 129.756 322.836C129.827 322.748 129.878 322.646 129.904 322.536C129.931 322.427 129.932 322.312 129.909 322.202L129.269 319.162C129.243 319.038 129.185 318.923 129.103 318.826C129.02 318.73 128.915 318.656 128.797 318.611C128.711 318.577 128.619 318.56 128.527 318.56H88.5613C88.4692 318.56 88.3778 318.577 88.292 318.611C88.1735 318.656 88.0682 318.73 87.9857 318.826C87.9031 318.923 87.846 319.038 87.8195 319.162L87.1792 322.202C87.1565 322.312 87.1585 322.426 87.1854 322.536C87.2122 322.645 87.263 322.747 87.3342 322.834Z" fill="#2F2E41"/>
<path d="M127.112 319.87H128.086C128.168 319.87 128.234 319.803 128.234 319.722V319.256C128.234 319.174 128.168 319.108 128.086 319.108H127.112C127.03 319.108 126.964 319.174 126.964 319.256V319.722C126.964 319.803 127.03 319.87 127.112 319.87Z" fill="#3F3D56"/>
<path d="M124.572 319.87H125.546C125.628 319.87 125.694 319.803 125.694 319.722V319.256C125.694 319.174 125.628 319.108 125.546 319.108H124.572C124.49 319.108 124.424 319.174 124.424 319.256V319.722C124.424 319.803 124.49 319.87 124.572 319.87Z" fill="#3F3D56"/>
<path d="M122.031 319.87H123.005C123.087 319.87 123.153 319.803 123.153 319.722V319.256C123.153 319.174 123.087 319.108 123.005 319.108H122.031C121.949 319.108 121.883 319.174 121.883 319.256V319.722C121.883 319.803 121.949 319.87 122.031 319.87Z" fill="#3F3D56"/>
<path d="M119.49 319.87H120.464C120.546 319.87 120.613 319.803 120.613 319.722V319.256C120.613 319.174 120.546 319.108 120.464 319.108H119.49C119.409 319.108 119.342 319.174 119.342 319.256V319.722C119.342 319.803 119.409 319.87 119.49 319.87Z" fill="#3F3D56"/>
<path d="M116.95 319.87H117.924C118.006 319.87 118.072 319.803 118.072 319.722V319.256C118.072 319.174 118.006 319.108 117.924 319.108H116.95C116.868 319.108 116.802 319.174 116.802 319.256V319.722C116.802 319.803 116.868 319.87 116.95 319.87Z" fill="#3F3D56"/>
<path d="M114.409 319.87H115.383C115.465 319.87 115.531 319.803 115.531 319.722V319.256C115.531 319.174 115.465 319.108 115.383 319.108H114.409C114.327 319.108 114.261 319.174 114.261 319.256V319.722C114.261 319.803 114.327 319.87 114.409 319.87Z" fill="#3F3D56"/>
<path d="M111.869 319.87H112.843C112.925 319.87 112.991 319.803 112.991 319.722V319.256C112.991 319.174 112.925 319.108 112.843 319.108H111.869C111.787 319.108 111.721 319.174 111.721 319.256V319.722C111.721 319.803 111.787 319.87 111.869 319.87Z" fill="#3F3D56"/>
<path d="M109.328 319.87H110.302C110.384 319.87 110.45 319.803 110.45 319.722V319.256C110.45 319.174 110.384 319.108 110.302 319.108H109.328C109.246 319.108 109.18 319.174 109.18 319.256V319.722C109.18 319.803 109.246 319.87 109.328 319.87Z" fill="#3F3D56"/>
<path d="M106.787 319.87H107.762C107.843 319.87 107.91 319.803 107.91 319.722V319.256C107.91 319.174 107.843 319.108 107.762 319.108H106.787C106.706 319.108 106.639 319.174 106.639 319.256V319.722C106.639 319.803 106.706 319.87 106.787 319.87Z" fill="#3F3D56"/>
<path d="M104.247 319.87H105.221C105.303 319.87 105.369 319.803 105.369 319.722V319.256C105.369 319.174 105.303 319.108 105.221 319.108H104.247C104.165 319.108 104.099 319.174 104.099 319.256V319.722C104.099 319.803 104.165 319.87 104.247 319.87Z" fill="#3F3D56"/>
<path d="M101.706 319.87H102.681C102.762 319.87 102.829 319.803 102.829 319.722V319.256C102.829 319.174 102.762 319.108 102.681 319.108H101.706C101.625 319.108 101.558 319.174 101.558 319.256V319.722C101.558 319.803 101.625 319.87 101.706 319.87Z" fill="#3F3D56"/>
<path d="M99.1659 319.87H100.14C100.222 319.87 100.288 319.803 100.288 319.722V319.256C100.288 319.174 100.222 319.108 100.14 319.108H99.1659C99.0841 319.108 99.0178 319.174 99.0178 319.256V319.722C99.0178 319.803 99.0841 319.87 99.1659 319.87Z" fill="#3F3D56"/>
<path d="M96.6251 319.87H97.5993C97.681 319.87 97.7473 319.803 97.7473 319.722V319.256C97.7473 319.174 97.681 319.108 97.5993 319.108H96.6251C96.5433 319.108 96.477 319.174 96.477 319.256V319.722C96.477 319.803 96.5433 319.87 96.6251 319.87Z" fill="#3F3D56"/>
<path d="M94.0846 319.87H95.0587C95.1405 319.87 95.2068 319.803 95.2068 319.722V319.256C95.2068 319.174 95.1405 319.108 95.0587 319.108H94.0846C94.0028 319.108 93.9365 319.174 93.9365 319.256V319.722C93.9365 319.803 94.0028 319.87 94.0846 319.87Z" fill="#3F3D56"/>
<path d="M91.544 319.87H92.5182C92.6 319.87 92.6663 319.803 92.6663 319.722V319.256C92.6663 319.174 92.6 319.108 92.5182 319.108H91.544C91.4623 319.108 91.396 319.174 91.396 319.256V319.722C91.396 319.803 91.4623 319.87 91.544 319.87Z" fill="#3F3D56"/>
<path d="M89.0035 319.87H89.9777C90.0594 319.87 90.1257 319.803 90.1257 319.722V319.256C90.1257 319.174 90.0594 319.108 89.9777 319.108H89.0035C88.9217 319.108 88.8554 319.174 88.8554 319.256V319.722C88.8554 319.803 88.9217 319.87 89.0035 319.87Z" fill="#3F3D56"/>
<path d="M127.142 321.14H128.116C128.198 321.14 128.264 321.073 128.264 320.992V320.526C128.264 320.444 128.198 320.378 128.116 320.378H127.142C127.06 320.378 126.994 320.444 126.994 320.526V320.992C126.994 321.073 127.06 321.14 127.142 321.14Z" fill="#3F3D56"/>
<path d="M124.602 321.14H125.576C125.658 321.14 125.724 321.073 125.724 320.992V320.526C125.724 320.444 125.658 320.378 125.576 320.378H124.602C124.52 320.378 124.454 320.444 124.454 320.526V320.992C124.454 321.073 124.52 321.14 124.602 321.14Z" fill="#3F3D56"/>
<path d="M122.061 321.14H123.035C123.117 321.14 123.183 321.073 123.183 320.992V320.526C123.183 320.444 123.117 320.378 123.035 320.378H122.061C121.979 320.378 121.913 320.444 121.913 320.526V320.992C121.913 321.073 121.979 321.14 122.061 321.14Z" fill="#3F3D56"/>
<path d="M119.52 321.14H120.495C120.576 321.14 120.643 321.073 120.643 320.992V320.526C120.643 320.444 120.576 320.378 120.495 320.378H119.52C119.439 320.378 119.372 320.444 119.372 320.526V320.992C119.372 321.073 119.439 321.14 119.52 321.14Z" fill="#3F3D56"/>
<path d="M116.98 321.14H117.954C118.036 321.14 118.102 321.073 118.102 320.992V320.526C118.102 320.444 118.036 320.378 117.954 320.378H116.98C116.898 320.378 116.832 320.444 116.832 320.526V320.992C116.832 321.073 116.898 321.14 116.98 321.14Z" fill="#3F3D56"/>
<path d="M114.439 321.14H115.413C115.495 321.14 115.562 321.073 115.562 320.992V320.526C115.562 320.444 115.495 320.378 115.413 320.378H114.439C114.358 320.378 114.291 320.444 114.291 320.526V320.992C114.291 321.073 114.358 321.14 114.439 321.14Z" fill="#3F3D56"/>
<path d="M111.899 321.14H112.873C112.955 321.14 113.021 321.073 113.021 320.992V320.526C113.021 320.444 112.955 320.378 112.873 320.378H111.899C111.817 320.378 111.751 320.444 111.751 320.526V320.992C111.751 321.073 111.817 321.14 111.899 321.14Z" fill="#3F3D56"/>
<path d="M109.358 321.14H110.332C110.414 321.14 110.48 321.073 110.48 320.992V320.526C110.48 320.444 110.414 320.378 110.332 320.378H109.358C109.276 320.378 109.21 320.444 109.21 320.526V320.992C109.21 321.073 109.276 321.14 109.358 321.14Z" fill="#3F3D56"/>
<path d="M106.817 321.14H107.792C107.873 321.14 107.94 321.073 107.94 320.992V320.526C107.94 320.444 107.873 320.378 107.792 320.378H106.817C106.736 320.378 106.669 320.444 106.669 320.526V320.992C106.669 321.073 106.736 321.14 106.817 321.14Z" fill="#3F3D56"/>
<path d="M104.277 321.14H105.251C105.333 321.14 105.399 321.073 105.399 320.992V320.526C105.399 320.444 105.333 320.378 105.251 320.378H104.277C104.195 320.378 104.129 320.444 104.129 320.526V320.992C104.129 321.073 104.195 321.14 104.277 321.14Z" fill="#3F3D56"/>
<path d="M101.736 321.14H102.711C102.792 321.14 102.859 321.073 102.859 320.992V320.526C102.859 320.444 102.792 320.378 102.711 320.378H101.736C101.655 320.378 101.588 320.444 101.588 320.526V320.992C101.588 321.073 101.655 321.14 101.736 321.14Z" fill="#3F3D56"/>
<path d="M99.1959 321.14H100.17C100.252 321.14 100.318 321.073 100.318 320.992V320.526C100.318 320.444 100.252 320.378 100.17 320.378H99.1959C99.1141 320.378 99.0478 320.444 99.0478 320.526V320.992C99.0478 321.073 99.1141 321.14 99.1959 321.14Z" fill="#3F3D56"/>
<path d="M96.6551 321.14H97.6293C97.7111 321.14 97.7773 321.073 97.7773 320.992V320.526C97.7773 320.444 97.7111 320.378 97.6293 320.378H96.6551C96.5733 320.378 96.507 320.444 96.507 320.526V320.992C96.507 321.073 96.5733 321.14 96.6551 321.14Z" fill="#3F3D56"/>
<path d="M94.1146 321.14H95.0888C95.1705 321.14 95.2368 321.073 95.2368 320.992V320.526C95.2368 320.444 95.1705 320.378 95.0888 320.378H94.1146C94.0328 320.378 93.9665 320.444 93.9665 320.526V320.992C93.9665 321.073 94.0328 321.14 94.1146 321.14Z" fill="#3F3D56"/>
<path d="M91.5741 321.14H92.5482C92.63 321.14 92.6963 321.073 92.6963 320.992V320.526C92.6963 320.444 92.63 320.378 92.5482 320.378H91.5741C91.4923 320.378 91.426 320.444 91.426 320.526V320.992C91.426 321.073 91.4923 321.14 91.5741 321.14Z" fill="#3F3D56"/>
<path d="M89.0335 321.14H90.0077C90.0895 321.14 90.1558 321.073 90.1558 320.992V320.526C90.1558 320.444 90.0895 320.378 90.0077 320.378H89.0335C88.9518 320.378 88.8855 320.444 88.8855 320.526V320.992C88.8855 321.073 88.9518 321.14 89.0335 321.14Z" fill="#3F3D56"/>
<path d="M106.055 322.663H115.922C116.003 322.663 116.07 322.597 116.07 322.515V322.049C116.07 321.967 116.003 321.901 115.922 321.901H106.055C105.974 321.901 105.907 321.967 105.907 322.049V322.515C105.907 322.597 105.974 322.663 106.055 322.663Z" fill="#3F3D56"/>
</svg>
