<svg width="30" height="29" viewBox="0 0 30 29" fill="none" xmlns="http://www.w3.org/2000/svg">
<path d="M3 28.75C2.175 28.75 1.469 28.4565 0.882 27.8695C0.295 27.2825 0.001 26.576 0 25.75V9.25C0 8.425 0.294 7.719 0.882 7.132C1.47 6.545 2.176 6.251 3 6.25H9V3.25C9 2.425 9.294 1.719 9.882 1.132C10.47 0.545 11.176 0.251 12 0.25H18C18.825 0.25 19.5315 0.544 20.1195 1.132C20.7075 1.72 21.001 2.426 21 3.25V6.25H27C27.825 6.25 28.5315 6.544 29.1195 7.132C29.7075 7.72 30.001 8.426 30 9.25V25.75C30 26.575 29.7065 27.2815 29.1195 27.8695C28.5325 28.4575 27.826 28.751 27 28.75H3ZM12 6.25H18V3.25H12V6.25Z" fill="#B153E5"/>
</svg>
