<svg width="26" height="26" viewBox="0 0 26 26" fill="none" xmlns="http://www.w3.org/2000/svg">
<path d="M13.0001 2.1665C11.5774 2.1665 10.1687 2.44672 8.85434 2.99114C7.53998 3.53557 6.34573 4.33355 5.33976 5.33951C3.30811 7.37116 2.16675 10.1267 2.16675 12.9998C2.16675 17.7882 5.27591 21.8507 9.57675 23.2915C10.1184 23.3782 10.2917 23.0423 10.2917 22.7498V20.919C7.29091 21.569 6.65175 19.4673 6.65175 19.4673C6.15341 18.2107 5.44925 17.8748 5.44925 17.8748C4.46341 17.2032 5.52508 17.2248 5.52508 17.2248C6.60841 17.3007 7.18258 18.3407 7.18258 18.3407C8.12508 19.9873 9.71758 19.4998 10.3351 19.2398C10.4326 18.5357 10.7142 18.059 11.0176 17.7882C8.61258 17.5173 6.08841 16.5857 6.08841 12.4582C6.08841 11.2557 6.50008 10.2915 7.20425 9.52234C7.09591 9.2515 6.71675 8.12484 7.31258 6.66234C7.31258 6.66234 8.22258 6.36984 10.2917 7.76734C11.1476 7.529 12.0792 7.40984 13.0001 7.40984C13.9209 7.40984 14.8526 7.529 15.7084 7.76734C17.7776 6.36984 18.6876 6.66234 18.6876 6.66234C19.2834 8.12484 18.9042 9.2515 18.7959 9.52234C19.5001 10.2915 19.9117 11.2557 19.9117 12.4582C19.9117 16.5965 17.3767 17.5065 14.9609 17.7773C15.3509 18.1132 15.7084 18.774 15.7084 19.7815V22.7498C15.7084 23.0423 15.8817 23.389 16.4342 23.2915C20.7351 21.8398 23.8334 17.7882 23.8334 12.9998C23.8334 11.5772 23.5532 10.1685 23.0088 8.8541C22.4643 7.53974 21.6664 6.34548 20.6604 5.33951C19.6544 4.33355 18.4602 3.53557 17.1458 2.99114C15.8315 2.44672 14.4227 2.1665 13.0001 2.1665Z" fill="#080808"/>
</svg>
