<svg width="72" height="72" viewBox="0 0 72 72" fill="none" xmlns="http://www.w3.org/2000/svg">
<path d="M39 39V51H33V39H21V33H33V21H39V33H51V39H39Z" fill="#B153E5"/>
<path fill-rule="evenodd" clip-rule="evenodd" d="M36 4.5H35.922C35.8077 4.50048 35.6935 4.50749 35.58 4.521C35.3468 4.54592 35.1146 4.57994 34.884 4.623C34.1372 4.76948 33.4045 4.98026 32.694 5.253C30.888 5.931 28.389 7.206 25.2 9.6C22.83 11.376 18.969 12.42 15.306 12.972C13.2497 13.2743 11.1768 13.4506 9.099 13.5H6V36C6 40.968 8.034 45.42 10.8 49.191C13.569 52.956 17.19 56.205 20.7 58.839C25.0673 62.0876 29.751 64.8878 34.68 67.197L34.752 67.227L34.764 67.233L34.83 67.263C35.2114 67.4243 35.6221 67.505 36.0361 67.4998C36.4502 67.4946 36.8587 67.4038 37.236 67.233L37.248 67.227L37.317 67.197C37.7056 67.0195 38.0916 66.8365 38.475 66.648C39.249 66.27 40.347 65.718 41.655 64.998C45.0112 63.175 48.2342 61.1168 51.3 58.839C54.81 56.205 58.431 52.959 61.2 49.191C63.966 45.42 66 40.968 66 36V13.5H62.901L62.55 13.491C60.5896 13.4298 58.6343 13.2555 56.694 12.969C53.031 12.42 49.17 11.382 46.8 9.6C43.611 7.206 41.112 5.931 39.303 5.253C38.5925 4.98026 37.8598 4.76948 37.113 4.623C36.7706 4.56305 36.425 4.52298 36.078 4.503H36.036L36.018 4.5H36ZM12 36V19.368C13.17 19.284 14.619 19.14 16.194 18.903C20.031 18.33 25.17 17.124 28.8 14.4C31.611 12.294 33.612 11.319 34.803 10.872C35.4 10.647 35.793 10.557 35.991 10.518H36.009C36.207 10.557 36.6 10.647 37.197 10.872C38.388 11.319 40.392 12.294 43.2 14.4C46.83 17.124 51.969 18.33 55.806 18.903C57.381 19.143 58.827 19.284 60 19.368V36C60 39.282 58.659 42.516 56.364 45.639C54.069 48.762 50.94 51.609 47.7 54.039C44.0261 56.7711 40.1098 59.1611 36 61.179C35.0617 60.7191 34.1344 60.2369 33.219 59.733C30.1156 58.0474 27.1352 56.1446 24.3 54.039C21.06 51.609 17.931 48.765 15.636 45.639C13.341 42.519 12 39.285 12 36Z" fill="#B153E5"/>
</svg>
