<svg width="25" height="26" viewBox="0 0 25 26" fill="none" xmlns="http://www.w3.org/2000/svg">
<path d="M12.6548 12.9999H12.6648" stroke="#444444" stroke-width="2" stroke-linecap="round" stroke-linejoin="round"/>
<path d="M16.7089 6.91868V4.89159C16.7089 4.35397 16.4954 3.83838 16.1152 3.45822C15.7351 3.07807 15.2195 2.8645 14.6819 2.8645H10.6277C10.0901 2.8645 9.57446 3.07807 9.19431 3.45822C8.81415 3.83838 8.60059 4.35397 8.60059 4.89159V6.91868" stroke="#444444" stroke-width="2" stroke-linecap="round" stroke-linejoin="round"/>
<path d="M22.7899 14.0134C19.7825 15.9989 16.2582 17.0574 12.6545 17.0574C9.05078 17.0574 5.52644 15.9989 2.51904 14.0134" stroke="#444444" stroke-width="2" stroke-linecap="round" stroke-linejoin="round"/>
<path d="M20.7628 6.9187H4.54613C3.4266 6.9187 2.51904 7.82626 2.51904 8.94579V19.0812C2.51904 20.2008 3.4266 21.1083 4.54613 21.1083H20.7628C21.8824 21.1083 22.7899 20.2008 22.7899 19.0812V8.94579C22.7899 7.82626 21.8824 6.9187 20.7628 6.9187Z" stroke="#444444" stroke-width="2" stroke-linecap="round" stroke-linejoin="round"/>
</svg>
