<svg width="422" height="409" viewBox="0 0 422 409" fill="none" xmlns="http://www.w3.org/2000/svg">
<g clip-path="url(#clip0_70_220)">
<path d="M296.153 407.619C295.712 408.083 295.253 408.542 294.788 409H241.796C241.36 408.553 240.93 408.095 240.5 407.619C240.483 407.602 240.465 407.579 240.448 407.561C234.691 401.193 231.066 391.935 228.806 382.173C228.661 381.581 228.533 380.984 228.405 380.381C227.813 377.637 227.331 374.864 226.936 372.115C226.866 371.639 226.796 371.164 226.738 370.688C226.204 366.738 225.843 362.852 225.611 359.203C225.582 358.733 225.553 358.275 225.524 357.817C225.098 350.553 225.095 343.271 225.512 336.007C225.512 336.007 225.582 336.007 225.716 336.013C226.105 336.031 227.04 336.071 228.417 336.152C232.21 336.384 239.368 336.964 247.785 338.333C248.244 338.409 248.709 338.49 249.174 338.571C256.293 339.746 263.317 341.444 270.186 343.652C270.616 343.797 271.04 343.942 271.47 344.087L271.476 344.116L276.745 370.514L278.929 347.017C280.666 347.8 282.356 348.635 283.977 349.528C284.43 349.778 284.872 350.027 285.308 350.282C289.013 352.379 292.376 355.027 295.282 358.136C312.565 377.26 308.864 394.354 296.153 407.619Z" fill="#F2F2F2"/>
<path d="M274.008 374.146L274.927 375.163C285.546 387.029 291.883 398.044 293.836 408.062C293.867 408.208 293.888 408.353 293.919 408.498L293.24 408.627L292.585 408.742C290.592 397.82 283.173 386.529 273.914 376.176C273.619 375.84 273.319 375.498 273.009 375.165C269.051 370.817 264.795 366.646 260.491 362.746C260.161 362.441 259.821 362.136 259.481 361.831C253.774 356.712 248.033 352.081 242.912 348.178C242.552 347.9 242.186 347.627 241.825 347.359C233.131 340.788 226.386 336.432 224.882 335.477C224.701 335.357 224.598 335.294 224.575 335.279L224.931 334.712L224.931 334.702L225.292 334.13C225.316 334.146 225.66 334.355 226.284 334.761C228.624 336.268 234.914 340.413 242.739 346.307C243.091 346.574 243.456 346.847 243.817 347.125C247.975 350.288 252.524 353.913 257.117 357.881C258.272 358.875 259.399 359.869 260.497 360.86C260.842 361.161 261.182 361.466 261.512 361.771C266.165 365.987 270.33 370.112 274.008 374.146Z" fill="white"/>
<path d="M248.285 337.208C248.128 337.585 247.96 337.962 247.785 338.333C246.458 341.2 244.761 343.882 242.737 346.309C242.441 346.657 242.139 347.011 241.825 347.359C240.977 348.293 240.074 349.196 239.118 350.068C235.204 353.605 230.565 356.25 225.524 357.817C225.361 357.869 225.205 357.921 225.042 357.968C225.071 358.426 225.1 358.878 225.129 359.348C225.292 359.302 225.449 359.255 225.611 359.203C230.96 357.593 235.883 354.815 240.024 351.071C241.037 350.158 242 349.191 242.911 348.177C243.225 347.834 243.527 347.481 243.818 347.127C245.982 344.53 247.784 341.652 249.174 338.571C249.336 338.2 249.499 337.829 249.656 337.452C249.191 337.37 248.732 337.289 248.285 337.208Z" fill="white"/>
<path d="M270.424 342.626C270.354 342.968 270.273 343.31 270.186 343.652C268.611 350.173 265.257 356.13 260.496 360.862C260.165 361.193 259.828 361.518 259.479 361.831C259.38 361.93 259.27 362.034 259.166 362.127C254.835 366.03 249.632 368.844 243.992 370.333C238.351 371.823 232.435 371.944 226.738 370.688C226.605 370.665 226.465 370.63 226.332 370.601C226.401 371.077 226.465 371.558 226.541 372.034C226.674 372.063 226.802 372.092 226.936 372.115C232.778 373.322 238.822 373.137 244.579 371.576C250.336 370.015 255.644 367.122 260.072 363.13C260.211 363.003 260.357 362.881 260.49 362.747C260.839 362.423 261.176 362.098 261.513 361.773C266.385 356.905 269.83 350.799 271.476 344.116C271.563 343.768 271.644 343.42 271.72 343.072C271.29 342.922 270.86 342.771 270.424 342.626Z" fill="white"/>
<path d="M283.977 348.548C283.983 348.873 283.983 349.203 283.977 349.528C283.88 358.695 280.32 367.487 274.008 374.145C273.683 374.493 273.346 374.83 273.009 375.166C272.643 375.52 272.277 375.874 271.9 376.21C266.056 381.469 258.673 384.714 250.842 385.464C243.011 386.215 235.145 384.433 228.405 380.381C228.29 380.321 228.177 380.255 228.068 380.184C228.208 380.798 228.347 381.402 228.499 382.005C228.603 382.063 228.702 382.121 228.806 382.173C235.741 386.034 243.712 387.632 251.602 386.744C259.492 385.856 266.906 382.525 272.806 377.219C273.184 376.877 273.561 376.535 273.915 376.175C274.264 375.845 274.595 375.508 274.926 375.16C281.327 368.42 285.022 359.566 285.308 350.282C285.319 349.969 285.325 349.656 285.325 349.343C284.884 349.07 284.43 348.809 283.977 348.548Z" fill="white"/>
<path d="M166.533 96.0424H64.4144C63.5646 96.0415 62.7499 95.704 62.149 95.104C61.5481 94.504 61.2101 93.6905 61.2091 92.842V15.4207C61.21 14.5721 61.548 13.7586 62.1489 13.1586C62.7498 12.5585 63.5646 12.221 64.4144 12.22H189.76C190.61 12.221 191.425 12.5585 192.026 13.1586C192.627 13.7586 192.965 14.5721 192.966 15.4207V69.6504C192.958 76.6476 190.17 83.3559 185.215 88.3036C180.26 93.2514 173.541 96.0345 166.533 96.0424Z" fill="white"/>
<path d="M166.533 96.3324H64.4145C63.4877 96.3313 62.5992 95.9632 61.9438 95.3089C61.2885 94.6545 60.9198 93.7673 60.9187 92.8419V15.4207C60.9197 14.4952 61.2884 13.608 61.9437 12.9536C62.5991 12.2992 63.4876 11.931 64.4145 11.9299H189.76C190.687 11.931 191.576 12.2991 192.231 12.9535C192.887 13.608 193.255 14.4952 193.256 15.4207V69.6504C193.248 76.7245 190.43 83.5064 185.42 88.5085C180.411 93.5106 173.618 96.3244 166.533 96.3324ZM64.4145 13.09C63.7957 13.0908 63.2024 13.3366 62.7649 13.7735C62.3273 14.2104 62.0812 14.8028 62.0806 15.4207V92.8419C62.0813 93.4598 62.3274 94.0521 62.7649 94.489C63.2025 94.9259 63.7957 95.1716 64.4145 95.1723H166.533C173.31 95.1647 179.807 92.4733 184.599 87.6887C189.391 82.9041 192.087 76.4169 192.094 69.6504V15.4207C192.094 14.8028 191.848 14.2104 191.41 13.7735C190.972 13.3366 190.379 13.0908 189.76 13.09H64.4145Z" fill="#CCCCCC"/>
<path d="M164.983 38.3666H89.1921C88.4963 38.3666 87.829 38.0906 87.337 37.5994C86.845 37.1081 86.5686 36.4418 86.5686 35.7471C86.5686 35.0523 86.845 34.3861 87.337 33.8948C87.829 33.4035 88.4963 33.1276 89.1921 33.1276H164.983C165.678 33.1286 166.344 33.405 166.835 33.8962C167.326 34.3873 167.602 35.053 167.602 35.7471C167.602 36.4411 167.326 37.1068 166.835 37.598C166.344 38.0891 165.678 38.3656 164.983 38.3666Z" fill="#E58C53"/>
<path d="M164.983 56.4121H89.1921C88.4963 56.4121 87.829 56.1361 87.337 55.6449C86.845 55.1536 86.5686 54.4873 86.5686 53.7926C86.5686 53.0979 86.845 52.4316 87.337 51.9403C87.829 51.4491 88.4963 51.1731 89.1921 51.1731H164.983C165.678 51.1731 166.346 51.4491 166.838 51.9403C167.33 52.4316 167.606 53.0979 167.606 53.7926C167.606 54.4873 167.33 55.1536 166.838 55.6449C166.346 56.1361 165.678 56.4121 164.983 56.4121Z" fill="#E58C53"/>
<path d="M164.983 74.9735H89.1921C88.4963 74.9735 87.829 74.6975 87.337 74.2063C86.845 73.715 86.5686 73.0487 86.5686 72.354C86.5686 71.6593 86.845 70.993 87.337 70.5017C87.829 70.0105 88.4963 69.7345 89.1921 69.7345H164.983C165.678 69.7345 166.346 70.0105 166.838 70.5017C167.33 70.993 167.606 71.6593 167.606 72.354C167.606 73.0487 167.33 73.715 166.838 74.2063C166.346 74.6975 165.678 74.9735 164.983 74.9735Z" fill="#E58C53"/>
<path d="M188.819 31.2858C197.472 31.2858 204.486 24.2822 204.486 15.6429C204.486 7.00356 197.472 0 188.819 0C180.167 0 173.152 7.00356 173.152 15.6429C173.152 24.2822 180.167 31.2858 188.819 31.2858Z" fill="#B153E5"/>
<path d="M186.682 23.7843C186.412 23.7843 186.145 23.7214 185.903 23.6006C185.661 23.4797 185.45 23.3043 185.288 23.0881L181.014 17.3979C180.877 17.2151 180.777 17.0071 180.72 16.7857C180.663 16.5644 180.651 16.334 180.683 16.1078C180.715 15.8816 180.792 15.664 180.909 15.4674C181.025 15.2707 181.179 15.099 181.363 14.9619C181.546 14.8248 181.754 14.725 181.976 14.6683C182.197 14.6116 182.428 14.5991 182.655 14.6314C182.881 14.6637 183.099 14.7403 183.296 14.8567C183.493 14.9731 183.665 15.1272 183.802 15.31L186.599 19.0324L193.78 8.27609C194.037 7.8921 194.436 7.62553 194.889 7.53502C195.342 7.44451 195.813 7.53748 196.197 7.79347C196.582 8.04947 196.849 8.44752 196.939 8.90006C197.03 9.3526 196.937 9.82255 196.681 10.2065L188.132 23.0094C187.978 23.2409 187.77 23.4321 187.526 23.5668C187.282 23.7016 187.009 23.776 186.731 23.7838C186.714 23.784 186.698 23.7843 186.682 23.7843Z" fill="white"/>
<path d="M128.842 163.286H26.7227C19.7148 163.278 12.9963 160.495 8.04097 155.548C3.08567 150.6 0.298312 143.892 0.290405 136.894V82.6643C0.291403 81.8158 0.629458 81.0022 1.23041 80.4022C1.83136 79.8022 2.64614 79.4646 3.49601 79.4636H128.842C129.692 79.4646 130.506 79.8022 131.107 80.4022C131.708 81.0022 132.046 81.8158 132.047 82.6643V160.086C132.046 160.934 131.708 161.748 131.107 162.348C130.506 162.948 129.692 163.285 128.842 163.286Z" fill="white"/>
<path d="M128.842 163.576H26.7227C19.6379 163.568 12.8455 160.755 7.8358 155.752C2.82606 150.75 0.00805526 143.968 0 136.894V82.6643C0.00105016 81.7388 0.369724 80.8516 1.02514 80.1972C1.68055 79.5427 2.56918 79.1746 3.49607 79.1736H128.842C129.769 79.1746 130.657 79.5427 131.313 80.1972C131.968 80.8516 132.337 81.7388 132.338 82.6643V160.086C132.337 161.011 131.968 161.898 131.313 162.553C130.657 163.207 129.769 163.575 128.842 163.576ZM3.49607 80.3337C2.87723 80.3344 2.28394 80.5802 1.84636 81.0171C1.40877 81.454 1.1626 82.0464 1.16186 82.6643V136.894C1.16951 143.661 3.86498 150.148 8.65692 154.933C13.4489 159.717 19.9459 162.409 26.7227 162.416H128.842C129.461 162.416 130.054 162.17 130.491 161.733C130.929 161.296 131.175 160.703 131.176 160.086V82.6643C131.175 82.0464 130.929 81.454 130.491 81.0171C130.054 80.5802 129.461 80.3344 128.842 80.3337H3.49607Z" fill="#E58C53"/>
<path d="M104.064 105.61H28.2737C27.5779 105.61 26.9106 105.334 26.4186 104.843C25.9266 104.352 25.6501 103.685 25.6501 102.991C25.6501 102.296 25.9266 101.63 26.4186 101.138C26.9106 100.647 27.5779 100.371 28.2737 100.371H104.064C104.76 100.371 105.427 100.647 105.919 101.138C106.411 101.63 106.688 102.296 106.688 102.991C106.688 103.685 106.411 104.352 105.919 104.843C105.427 105.334 104.76 105.61 104.064 105.61Z" fill="#E58C53"/>
<path d="M104.064 123.656H28.2737C27.5779 123.656 26.9106 123.38 26.4186 122.889C25.9265 122.397 25.6501 121.731 25.6501 121.036C25.6501 120.342 25.9265 119.675 26.4186 119.184C26.9106 118.693 27.5779 118.417 28.2737 118.417H104.064C104.76 118.417 105.427 118.693 105.919 119.184C106.411 119.675 106.688 120.342 106.688 121.036C106.688 121.731 106.411 122.397 105.919 122.889C105.427 123.38 104.76 123.656 104.064 123.656Z" fill="#E58C53"/>
<path d="M104.064 142.217H28.2737C27.5779 142.217 26.9106 141.941 26.4186 141.45C25.9265 140.959 25.6501 140.292 25.6501 139.598C25.6501 138.903 25.9265 138.237 26.4186 137.745C26.9106 137.254 27.5779 136.978 28.2737 136.978H104.064C104.76 136.978 105.427 137.254 105.919 137.745C106.411 138.237 106.688 138.903 106.688 139.598C106.688 140.292 106.411 140.959 105.919 141.45C105.427 141.941 104.76 142.217 104.064 142.217Z" fill="#E58C53"/>
<path d="M128.984 99.1508C137.636 99.1508 144.65 92.1472 144.65 83.5079C144.65 74.8686 137.636 67.865 128.984 67.865C120.331 67.865 113.317 74.8686 113.317 83.5079C113.317 92.1472 120.331 99.1508 128.984 99.1508Z" fill="#B153E5"/>
<path d="M126.846 91.6493C126.576 91.6493 126.309 91.5864 126.067 91.4655C125.825 91.3447 125.615 91.1693 125.452 90.9531L121.178 85.2629C121.041 85.0801 120.941 84.8721 120.884 84.6507C120.827 84.4293 120.815 84.199 120.847 83.9728C120.88 83.7466 120.956 83.529 121.073 83.3323C121.19 83.1357 121.344 82.964 121.527 82.8269C121.71 82.6898 121.918 82.59 122.14 82.5333C122.362 82.4766 122.592 82.4641 122.819 82.4964C123.045 82.5287 123.263 82.6053 123.46 82.7217C123.657 82.8381 123.829 82.9921 123.967 83.175L126.763 86.8974L133.945 76.1411C134.201 75.7571 134.6 75.4905 135.053 75.4C135.506 75.3095 135.977 75.4025 136.362 75.6585C136.746 75.9145 137.013 76.3125 137.104 76.7651C137.194 77.2176 137.101 77.6875 136.845 78.0715L128.297 90.8744C128.142 91.1059 127.934 91.2971 127.69 91.4318C127.446 91.5666 127.174 91.6409 126.895 91.6487C126.879 91.649 126.863 91.6493 126.846 91.6493Z" fill="white"/>
<path d="M256.079 235.451H113.192C106.184 235.443 99.4654 232.66 94.5101 227.713C89.5548 222.765 86.7674 216.057 86.7595 209.059V129.296C86.7608 128.202 87.1965 127.153 87.9712 126.38C88.7458 125.606 89.7961 125.171 90.8915 125.17H256.079C257.175 125.171 258.225 125.606 259 126.38C259.774 127.153 260.21 128.202 260.211 129.296V231.325C260.21 232.419 259.774 233.468 259 234.241C258.225 235.015 257.175 235.45 256.079 235.451Z" fill="white"/>
<path d="M256.079 235.741H113.192C106.107 235.733 99.3147 232.92 94.3049 227.917C89.2952 222.915 86.4772 216.133 86.4691 209.059V129.296C86.4704 128.125 86.9368 127.002 87.7659 126.175C88.595 125.347 89.7191 124.881 90.8916 124.88H256.079C257.252 124.881 258.376 125.347 259.205 126.175C260.034 127.002 260.5 128.125 260.502 129.296V231.325C260.5 232.496 260.034 233.618 259.205 234.446C258.376 235.274 257.252 235.74 256.079 235.741ZM90.8916 126.04C90.0271 126.041 89.1984 126.384 88.5871 126.995C87.9758 127.605 87.632 128.432 87.631 129.296V209.059C87.6386 215.826 90.3341 222.313 95.126 227.098C99.918 231.882 106.415 234.574 113.192 234.581H256.079C256.944 234.58 257.773 234.237 258.384 233.626C258.995 233.016 259.339 232.188 259.34 231.325V129.296C259.339 128.432 258.995 127.605 258.384 126.995C257.773 126.384 256.944 126.041 256.079 126.04H90.8916Z" fill="#E58C53"/>
<path d="M223.426 159.535H123.545C123.091 159.535 122.64 159.447 122.22 159.273C121.8 159.1 121.419 158.846 121.097 158.525C120.776 158.205 120.521 157.824 120.347 157.405C120.173 156.986 120.083 156.536 120.083 156.083C120.083 155.629 120.173 155.18 120.347 154.761C120.521 154.342 120.776 153.961 121.097 153.64C121.419 153.32 121.8 153.065 122.22 152.892C122.64 152.719 123.091 152.63 123.545 152.631H223.426C223.88 152.63 224.33 152.719 224.75 152.892C225.17 153.065 225.552 153.32 225.874 153.64C226.195 153.961 226.45 154.342 226.624 154.761C226.798 155.18 226.888 155.629 226.888 156.083C226.888 156.536 226.798 156.986 226.624 157.405C226.45 157.824 226.195 158.205 225.874 158.525C225.552 158.846 225.17 159.1 224.75 159.273C224.33 159.447 223.88 159.535 223.426 159.535Z" fill="#E58C53"/>
<path d="M223.426 183.316H123.545C123.091 183.317 122.64 183.228 122.22 183.055C121.8 182.882 121.419 182.627 121.097 182.307C120.776 181.986 120.521 181.605 120.347 181.186C120.173 180.767 120.083 180.318 120.083 179.864C120.083 179.41 120.173 178.961 120.347 178.542C120.521 178.123 120.776 177.742 121.097 177.422C121.419 177.101 121.8 176.847 122.22 176.673C122.64 176.5 123.091 176.411 123.545 176.412H223.426C224.343 176.412 225.222 176.776 225.871 177.423C226.519 178.071 226.883 178.949 226.883 179.864C226.883 180.78 226.519 181.658 225.871 182.305C225.222 182.953 224.343 183.316 223.426 183.316Z" fill="#E58C53"/>
<path d="M223.426 207.777H123.545C122.628 207.777 121.748 207.414 121.1 206.766C120.452 206.119 120.087 205.241 120.087 204.325C120.087 203.41 120.452 202.532 121.1 201.884C121.748 201.237 122.628 200.873 123.545 200.873H223.426C223.88 200.873 224.33 200.961 224.75 201.135C225.17 201.308 225.552 201.562 225.873 201.883C226.195 202.203 226.45 202.584 226.624 203.003C226.798 203.422 226.888 203.872 226.888 204.325C226.888 204.779 226.798 205.228 226.624 205.647C226.45 206.067 226.195 206.447 225.873 206.768C225.552 207.089 225.17 207.343 224.75 207.516C224.33 207.689 223.88 207.778 223.426 207.777Z" fill="#E58C53"/>
<path d="M256.598 151.216C267.551 151.216 276.43 142.35 276.43 131.414C276.43 120.478 267.551 111.612 256.598 111.612C245.645 111.612 236.766 120.478 236.766 131.414C236.766 142.35 245.645 151.216 256.598 151.216Z" fill="#B153E5"/>
<path d="M253.893 141.72C253.55 141.72 253.212 141.64 252.906 141.487C252.6 141.335 252.333 141.112 252.128 140.839L246.718 133.636C246.544 133.404 246.417 133.141 246.345 132.861C246.273 132.58 246.258 132.289 246.299 132.003C246.34 131.716 246.437 131.441 246.584 131.192C246.732 130.943 246.927 130.726 247.159 130.552C247.391 130.378 247.654 130.252 247.935 130.18C248.216 130.109 248.508 130.093 248.794 130.134C249.081 130.175 249.357 130.271 249.606 130.419C249.856 130.566 250.073 130.761 250.247 130.993L253.787 135.705L262.878 122.089C263.203 121.603 263.708 121.267 264.281 121.152C264.854 121.038 265.45 121.156 265.936 121.48C266.423 121.804 266.76 122.307 266.875 122.879C266.99 123.452 266.873 124.046 266.55 124.532L255.728 140.739C255.533 141.032 255.269 141.274 254.961 141.445C254.652 141.615 254.307 141.709 253.954 141.719C253.934 141.72 253.913 141.72 253.893 141.72Z" fill="white"/>
<path d="M307.977 393.191L299.908 395.886L285.66 366.093L297.569 362.116L307.977 393.191Z" fill="#FFB6B6"/>
<path d="M312.65 400.313L286.633 407.261L286.523 406.932C285.619 404.231 285.821 403.08 287.095 400.532C287.717 399.277 288.583 398.158 289.642 397.239C290.701 396.32 291.931 395.62 293.263 395.18L293.263 395.179L296.81 389.993L306.883 390.632L309.154 389.873L312.65 400.313Z" fill="#2F2E41"/>
<path d="M327.912 400.766H319.404L315.356 368L327.914 368L327.912 400.766Z" fill="#FFB6B6"/>
<path d="M330.082 407.261L302.648 407.26V406.913C302.648 404.066 303.759 403.128 305.776 401.115C306.765 400.122 307.942 399.334 309.238 398.798C310.534 398.262 311.923 397.988 313.326 397.992H313.327L318.338 394.196L327.687 397.993L330.082 397.993L330.082 407.261Z" fill="#2F2E41"/>
<path d="M263.16 138.234C263.336 139.124 263.704 139.964 264.24 140.697C264.776 141.429 265.466 142.035 266.262 142.473C267.058 142.91 267.94 143.168 268.846 143.228C269.753 143.288 270.661 143.149 271.508 142.82L281.33 153.059L289.018 148.617L274.944 134.352C274.297 132.968 273.164 131.87 271.76 131.264C270.355 130.659 268.778 130.589 267.325 131.067C265.873 131.545 264.647 132.539 263.879 133.86C263.111 135.181 262.856 136.737 263.16 138.234Z" fill="#FFB6B6"/>
<path d="M326.727 189.716L331.154 185.142L305.548 161.462L279.777 138.486L272.639 148.557L299.645 173.727L326.727 189.716Z" fill="#E4E4E4"/>
<path d="M310.993 345.11C310.993 339.362 311.107 335.261 311.199 331.967C311.467 322.324 311.539 319.732 307.843 303.128L306.894 298.863L301.297 315.629C299.509 320.977 298.596 326.577 298.591 332.215L307.221 383.916H289.583L276.665 328.023L276.659 310.926C275.52 309.75 274.884 308.178 274.884 306.543C274.884 304.907 275.52 303.336 276.659 302.16L280.951 276.546L285.295 242.026H332.877C332.877 242.026 341.274 259.405 332.929 276.644L332.928 345.132L328.617 392.486H315.306L310.993 345.11Z" fill="#2F2E41"/>
<path d="M329.968 246.204L285.461 242.501L285.23 242.482L288.782 178.646C288.991 174.632 290.401 170.774 292.831 167.569C295.26 164.365 298.597 161.963 302.41 160.673V156.206C302.411 155.1 302.851 154.04 303.634 153.258C304.418 152.476 305.479 152.036 306.587 152.035H313.09C313.866 152.033 314.627 152.247 315.287 152.655C315.948 153.062 316.481 153.646 316.825 154.341L320.005 160.691L332.03 170.295C337.968 175.039 333.189 222.602 332.932 225.111L335.84 239.63C336 240.429 335.98 241.253 335.783 242.043C335.586 242.834 335.216 243.571 334.7 244.201C334.183 244.832 333.533 245.34 332.797 245.69C332.06 246.04 331.255 246.222 330.439 246.224C330.283 246.224 330.126 246.217 329.968 246.204Z" fill="#E4E4E4"/>
<path d="M282.836 263.059C283.539 262.485 284.108 261.765 284.503 260.948C284.897 260.131 285.107 259.237 285.119 258.33C285.13 257.423 284.942 256.525 284.568 255.698C284.193 254.872 283.642 254.137 282.953 253.546L287.369 240.071L279.822 235.395L273.854 254.511C272.937 255.733 272.5 257.249 272.627 258.771C272.754 260.292 273.435 261.715 274.542 262.769C275.649 263.822 277.105 264.434 278.634 264.487C280.162 264.541 281.657 264.033 282.836 263.059Z" fill="#FFB6B6"/>
<path d="M298.356 171.454L292.229 169.414L283.379 208.839L275.228 248.046L287.488 249.847L296.995 208.159L298.356 171.454Z" fill="#E4E4E4"/>
<path d="M305.048 147.955C313.121 147.955 319.665 141.42 319.665 133.36C319.665 125.299 313.121 118.765 305.048 118.765C296.975 118.765 290.43 125.299 290.43 133.36C290.43 141.42 296.975 147.955 305.048 147.955Z" fill="#FFB6B6"/>
<path d="M285.38 126.212C285.515 124.829 285.912 123.484 286.55 122.249C287.233 123.733 289.364 123.99 290.823 123.252C292.282 122.513 293.26 121.111 294.302 119.852C297.053 116.532 300.837 113.839 305.124 113.348C309.412 112.858 314.138 115.019 315.758 119.013C316.485 118.005 318.036 117.893 319.134 118.479C320.193 119.146 321.021 120.124 321.501 121.279C322.58 123.49 323.19 125.9 323.293 128.357C323.395 130.814 322.987 133.266 322.096 135.558C320.29 140.12 315.832 146.266 311.232 147.988C308.439 149.033 305.618 147.695 302.648 147.988C302.804 144.751 303.432 140.758 303.588 137.522C303.673 135.749 303.685 133.766 302.473 132.469C302.101 132.116 301.656 131.849 301.169 131.687C300.683 131.526 300.166 131.473 299.657 131.532C299.148 131.591 298.658 131.762 298.221 132.031C297.785 132.3 297.414 132.662 297.133 133.091C296.983 132.085 296.643 131.116 296.13 130.237C295.867 129.8 295.488 129.446 295.034 129.214C294.58 128.982 294.071 128.881 293.563 128.923C292.323 129.126 291.556 130.397 290.418 130.93C289.772 131.188 289.062 131.244 288.383 131.088C287.704 130.933 287.089 130.574 286.621 130.06C286.165 129.535 285.82 128.924 285.607 128.262C285.394 127.601 285.317 126.904 285.38 126.212Z" fill="#2F2E41"/>
<path opacity="0.1" d="M306.94 207.982L289.773 242.264H302.648L306.94 207.982Z" fill="#080808"/>
<path d="M422 408.31C422 408.4 421.983 408.49 421.948 408.574C421.913 408.658 421.862 408.734 421.798 408.799C421.734 408.863 421.658 408.913 421.574 408.948C421.49 408.983 421.4 409 421.309 409H93.4962C93.3129 409 93.1371 408.927 93.0074 408.798C92.8778 408.668 92.8049 408.493 92.8049 408.31C92.8049 408.127 92.8778 407.951 93.0074 407.822C93.1371 407.692 93.3129 407.62 93.4962 407.62H421.309C421.4 407.619 421.49 407.637 421.574 407.671C421.658 407.706 421.734 407.757 421.798 407.821C421.862 407.885 421.913 407.961 421.948 408.045C421.983 408.129 422 408.219 422 408.31Z" fill="#CACACA"/>
</g>
<defs>
<clipPath id="clip0_70_220">
<rect width="422" height="409" fill="white"/>
</clipPath>
</defs>
</svg>
