<svg width="529" height="389" viewBox="0 0 529 389" fill="none" xmlns="http://www.w3.org/2000/svg">
<g clip-path="url(#clip0_70_2449)">
<path d="M515.818 169.534C515.966 167.272 510.666 166.168 510.907 164.188C511.147 162.216 516.492 162.626 522.143 159.063C523.162 158.421 529.583 154.372 528.957 151.335C527.77 145.577 502.308 148.516 499.83 140.14C499.286 138.302 499.791 135.723 498.291 129.946C497.695 127.648 497.199 126.455 496.187 126.078C494.752 125.544 493.531 127.12 490.008 129.449C484.723 132.941 483.757 131.849 479.965 134.926C477.15 137.21 476.204 139.012 474.979 138.649C473.244 138.135 474.019 134.196 472.033 133.234C470.007 132.253 466.473 135.035 464.308 137.447C460.245 141.974 459.824 146.511 458.474 150.66C457.006 155.168 453.754 161.324 445.686 167.664L372.043 221.342C387.546 210.596 430.899 181.725 447.79 171.531C452.666 168.589 457.787 165.724 463.378 167.042C468.76 168.31 473.93 173.302 482.608 176.614C483.621 177.001 486.456 178.041 487.732 176.828C488.788 175.825 487.817 174.195 488.788 173.243C490.09 171.967 492.895 173.864 497.492 174.514C500.734 174.972 503.218 174.577 505.355 174.238C505.999 174.135 515.622 172.545 515.818 169.534Z" fill="#F2F2F2"/>
<path d="M391.387 139.044C390.321 138.319 388.251 140.604 387.35 139.915C386.453 139.228 388.196 136.719 388.08 132.914C388.059 132.228 387.928 127.904 386.258 127.335C383.094 126.257 377.187 139.619 372.367 138.42C371.309 138.157 370.191 137.165 366.926 136.235C365.628 135.865 364.9 135.765 364.424 136.153C363.748 136.705 364.168 137.759 364.293 140.163C364.479 143.768 363.665 143.927 364.08 146.679C364.387 148.721 364.997 149.706 364.465 150.203C363.713 150.908 362.006 149.39 360.962 150.089C359.896 150.801 360.24 153.341 360.798 155.101C361.844 158.404 363.947 159.92 365.59 161.781C367.376 163.803 369.456 167.177 370.235 172.971L375.297 224.652C374.503 213.932 372.861 184.296 372.738 173.053C372.703 169.808 372.776 166.465 375.035 164.097C377.21 161.818 381.148 160.718 385.275 157.408C385.757 157.022 387.085 155.929 386.859 154.951C386.672 154.143 385.592 154.15 385.406 153.398C385.157 152.39 386.896 151.559 388.541 149.487C389.7 148.026 390.224 146.691 390.674 145.543C390.81 145.197 392.807 140.009 391.387 139.044Z" fill="#F2F2F2"/>
<path d="M409.339 158.36L412.615 152.194L413.204 151.961C415.932 150.882 417.963 149.395 419.244 147.54C419.448 147.245 419.637 146.94 419.829 146.629C420.591 145.397 421.537 143.865 423.494 142.664C424.588 141.996 427.334 140.597 428.975 142.129C429.421 142.537 429.639 143.019 429.74 143.478C429.827 143.441 429.915 143.404 430.01 143.363C431.176 142.883 431.883 142.819 432.563 142.758C433.087 142.711 433.627 142.663 434.629 142.359C435.069 142.226 435.432 142.093 435.737 141.982C436.663 141.646 437.82 141.282 438.902 142.044C440.029 142.898 439.979 144.282 439.947 145.198C439.89 146.832 439.655 147.878 439.5 148.571C439.442 148.824 439.379 149.11 439.377 149.21C439.374 150.021 442.781 151.597 444.059 152.198C446.938 153.538 449.428 154.698 449.233 156.961C449.095 158.58 447.55 159.787 444.512 160.641C443.566 160.906 442.689 160.999 441.944 161.032C442.185 161.555 442.294 162.178 442.04 162.866C441.439 164.492 439.296 165.066 435.669 164.577C434.767 164.458 433.555 164.293 432.143 163.645C431.478 163.339 430.925 162.997 430.457 162.696C430.266 162.955 430.007 163.2 429.643 163.385C428.574 163.931 427.304 163.67 425.887 162.552C424.311 161.345 423.178 160.109 422.178 159.021C421.304 158.072 420.549 157.258 419.815 156.824C418.443 156.037 416.727 156.392 414.626 156.937L409.339 158.36Z" fill="#F2F2F2"/>
<path d="M435.631 126.303L428.844 124.694L428.469 124.182C426.735 121.814 424.783 120.223 422.666 119.453C422.33 119.331 421.987 119.225 421.638 119.118C420.254 118.693 418.534 118.164 416.878 116.573C415.956 115.684 413.908 113.379 414.971 111.4C415.252 110.865 415.662 110.532 416.08 110.317C416.022 110.243 415.964 110.167 415.9 110.085C415.141 109.078 414.9 108.409 414.669 107.765C414.49 107.27 414.307 106.76 413.759 105.865C413.519 105.473 413.299 105.156 413.113 104.888C412.554 104.077 411.909 103.048 412.371 101.807C412.91 100.499 414.259 100.196 415.152 99.9948C416.746 99.6355 417.815 99.5974 418.525 99.5724C418.784 99.5639 419.076 99.5529 419.173 99.5291C419.957 99.3262 420.616 95.627 420.872 94.2361C421.436 91.1083 421.925 88.4017 424.16 88.0166C425.76 87.7396 427.317 88.9304 428.912 91.6565C429.408 92.5056 429.721 93.3315 429.942 94.0446C430.386 93.6787 430.96 93.4148 431.689 93.4857C433.413 93.6557 434.51 95.5857 434.958 99.2227C435.072 100.127 435.22 101.342 434.952 102.875C434.825 103.597 434.635 104.219 434.463 104.748C434.762 104.868 435.064 105.056 435.335 105.362C436.134 106.259 436.203 107.555 435.483 109.212C434.717 111.044 433.81 112.455 433.013 113.699C432.318 114.787 431.723 115.725 431.49 116.546C431.078 118.074 431.856 119.646 432.915 121.543L435.631 126.303Z" fill="#F2F2F2"/>
<path d="M444.198 107.395L447.474 101.229L448.064 100.996C450.791 99.9175 452.822 98.4305 454.104 96.5754C454.307 96.2805 454.496 95.9751 454.688 95.6643C455.45 94.4319 456.397 92.8998 458.354 91.6991C459.447 91.0315 462.193 89.6325 463.835 91.1645C464.28 91.5717 464.498 92.0541 464.599 92.5136C464.686 92.4757 464.775 92.4387 464.869 92.398C466.035 91.9181 466.742 91.8545 467.423 91.7933C467.946 91.7459 468.486 91.6979 469.489 91.3944C469.928 91.2614 470.291 91.1283 470.597 91.0169C471.522 90.6809 472.68 90.317 473.761 91.0789C474.888 91.9333 474.839 93.3169 474.806 94.233C474.749 95.8674 474.515 96.913 474.359 97.6064C474.302 97.8595 474.238 98.145 474.236 98.2454C474.234 99.0559 477.64 100.632 478.919 101.233C481.797 102.573 484.287 103.733 484.093 105.996C483.954 107.616 482.409 108.822 479.371 109.676C478.425 109.941 477.548 110.034 476.803 110.067C477.044 110.59 477.153 111.213 476.9 111.901C476.298 113.527 474.156 114.101 470.529 113.612C469.626 113.493 468.415 113.328 467.002 112.68C466.337 112.374 465.784 112.032 465.316 111.731C465.125 111.99 464.866 112.235 464.502 112.42C463.433 112.966 462.164 112.705 460.746 111.587C459.17 110.38 458.038 109.144 457.037 108.056C456.163 107.107 455.408 106.293 454.674 105.859C453.302 105.072 451.587 105.427 449.486 105.972L444.198 107.395Z" fill="#F2F2F2"/>
<path d="M374.021 222.562L373.337 220.988L371.831 220.19C371.897 220.045 372.026 219.694 372.231 219.148C373.357 216.159 376.779 207.059 383.582 193.697C388.331 184.37 393.727 175.133 399.62 166.237C405.524 157.328 410.508 150.936 414.513 145.798C417.534 141.924 420.477 138.279 423.347 134.731C431.009 125.249 438.245 116.291 444.859 105.415C446.336 102.988 449.41 97.9341 450.113 90.7964C450.521 86.6565 450.076 82.4269 448.786 78.2277L452.064 77.2184C453.485 81.8571 453.976 86.54 453.524 91.1367C452.743 99.0506 449.395 104.557 447.786 107.203C441.055 118.271 433.748 127.314 426.011 136.888C423.154 140.424 420.223 144.052 417.214 147.911C413.246 153.001 408.305 159.337 402.478 168.132C396.653 176.921 391.325 186.046 386.634 195.255C379.918 208.449 376.547 217.413 375.44 220.358C374.847 221.93 374.723 222.259 374.021 222.562Z" fill="#F2F2F2"/>
<path d="M440.523 79.1698C440.407 79.0903 440.291 79.0071 440.178 78.9173C437.859 77.136 436.617 74.1635 436.483 70.0828C436.424 68.1653 436.943 66.3805 437.978 62.8211C438.136 62.2718 438.973 59.5066 440.676 56.0801C441.787 53.8408 442.408 53.011 443.329 52.5336C444.352 52.0008 445.479 51.9127 446.567 52.0778C446.717 51.7822 446.937 51.5228 447.249 51.3185C448.538 50.4683 449.714 51.5019 450.356 52.0519C450.676 52.3366 451.074 52.6949 451.563 52.9938C452.33 53.4673 452.881 53.5197 453.713 53.6027C454.509 53.6814 455.498 53.7793 456.715 54.2929C459.12 55.2963 460.474 57.1027 460.921 57.6976C463.282 60.8153 463.161 64.23 463.021 68.1835C462.99 68.9751 462.808 71.8071 461.709 75.1073C460.916 77.4882 460.23 78.3181 459.609 78.8588C458.336 79.9722 456.985 80.1831 453.73 80.4611C450.328 80.7559 448.622 80.9018 447.31 80.8026C444.261 80.5673 442.345 80.4197 440.523 79.1698Z" fill="#F2F2F2"/>
<path d="M427.012 0H234.885C227.837 0 222.106 5.73866 222.106 12.7959V211.235C222.106 218.292 227.837 224.031 234.885 224.031H427.012C434.06 224.031 439.791 218.292 439.791 211.235V12.7959C439.791 5.73866 434.06 0 427.012 0ZM438.447 211.235C438.447 217.558 433.327 222.685 427.012 222.685H234.885C228.57 222.685 223.45 217.558 223.45 211.235V12.7959C223.45 6.47206 228.57 1.34553 234.885 1.34553H336.654C392.873 1.34553 438.447 46.9807 438.447 103.275V211.235Z" fill="#E58C53"/>
<path d="M218.04 149.142C211.306 150.964 206.787 155.921 207.946 160.212C209.105 164.503 215.503 166.503 222.239 164.679C224.94 163.987 227.436 162.658 229.518 160.802L257.953 152.719L253.88 139.438L226.281 148.817C223.548 148.265 220.722 148.376 218.04 149.142Z" fill="#FFB6B6"/>
<path d="M337.197 109.298C337.197 109.298 345.225 121.091 327.132 129.986C309.04 138.882 275.596 151.578 275.596 151.578L229.418 162.291L222.445 146.982L277.239 132.033L321.889 107.082L337.197 109.298Z" fill="#423449"/>
<path d="M331.826 77.9111C331.62 83.5008 335.639 90.1362 339.888 90.2725C345 90.4364 369.163 92.1597 369.94 90.1528C375.334 76.2192 349.933 47.3153 344.208 46.4814C341.131 46.0334 337.447 50.4569 336.03 54.1087C334.045 59.2262 336.975 61.6395 335.321 68.5338C334.06 73.7911 331.969 74.0033 331.826 77.9111Z" fill="#080808"/>
<path d="M289.764 298.264L272.805 302.155L289.846 352.788L301.338 350.151L289.764 298.264Z" fill="#FFB6B6"/>
<path d="M283.704 336.998L290.264 337.961L291.275 341.479C291.275 341.479 291.493 337.004 298.738 333.937L300.621 337.086C300.621 337.086 304.499 339.585 305.752 345.778L308.535 362.531L302.84 364.044L298.661 353.038C298.661 353.038 296.362 350.933 292.704 365.171C292.704 365.171 291.223 369.957 277.786 369.402C275.939 369.326 274.314 368.092 273.821 366.308C273.549 365.324 273.67 364.306 274.804 363.624C277.691 361.888 281.048 362.051 282.343 358.965C283.638 355.88 283.704 336.998 283.704 336.998Z" fill="#372A3E"/>
<path d="M326.609 321.283L311.464 320.909L313.585 374.225L325.373 374.435L326.609 321.283Z" fill="#FFB6B6"/>
<path d="M311.418 357.419L317.553 359.934L317.689 363.593C317.689 363.593 318.977 359.302 326.745 358.071L327.816 361.581C327.816 361.581 330.98 364.941 330.708 371.254L329.383 388.185L323.492 388.281L322.08 376.592C322.08 376.592 320.354 373.994 313.382 386.933C313.382 386.933 310.795 391.221 297.886 387.445C296.112 386.926 294.831 385.337 294.781 383.487C294.754 382.466 295.115 381.507 296.38 381.118C299.599 380.129 302.819 381.096 304.817 378.413C306.816 375.73 311.418 357.419 311.418 357.419Z" fill="#372A3E"/>
<path d="M357.86 263.048L277.764 256.843L300.304 164.316L354.232 156.536L357.86 263.048Z" fill="#372A3E"/>
<path d="M346.814 92.9712L363.69 83.9684L377.318 100.081L349.933 187.97L299.839 165.759L337.887 100.626L346.814 92.9712Z" fill="#B153E5"/>
<path d="M348.953 172.101C348.953 172.101 354.327 199.849 337.686 214.27L332.592 230.487L327.092 260.419L327.589 337.728L307.433 335.709L299.371 261.708L299.275 224.878L269.519 250.394L300.661 311.641L275.285 322.768L244.293 248.959C242.139 244.463 242.714 239.134 245.775 235.202L299.839 165.759L348.953 172.101Z" fill="#372A3E"/>
<path d="M369.846 91.2476L336.758 122.158C328.927 185.788 333.202 244.215 355.733 294.797L411.335 268.992C365.487 255.068 369.983 178.611 378.879 96.6885L369.846 91.2476Z" fill="#423449"/>
<path d="M341.311 100.728L346.401 92.8414L318.249 109.415L295.987 171.189L337.053 119.873L341.311 100.728Z" fill="#423449"/>
<path d="M411.733 216.924C413.674 223.633 418.704 228.069 422.967 226.831C427.231 225.594 429.114 219.153 427.172 212.442C426.433 209.75 425.061 207.275 423.171 205.223L414.591 176.9L401.403 181.215L411.262 208.679C410.759 211.425 410.921 214.252 411.733 216.924Z" fill="#FFB6B6"/>
<path d="M368.561 97.3482C368.561 97.3482 380.102 88.974 389.502 106.828C398.902 124.681 412.537 157.792 412.537 157.792L424.558 203.704L409.476 211.124L392.979 156.709L366.788 112.734L368.561 97.3482Z" fill="#423449"/>
<path d="M354.838 83.2438C365.189 83.2438 373.58 74.8414 373.58 64.4766C373.58 54.1117 365.189 45.7094 354.838 45.7094C344.487 45.7094 336.096 54.1117 336.096 64.4766C336.096 74.8414 344.487 83.2438 354.838 83.2438Z" fill="#FFB6B6"/>
<path d="M354.9 57.1547C353.845 57.0505 353.302 58.1675 349.273 59.726C347.846 60.2782 347.115 60.5553 346.277 60.6093C343.728 60.7732 341.748 59.3637 340.424 58.4218C338.272 56.8906 336.886 55.9043 336.615 54.3274C336.262 52.2697 338.588 49.9711 343.256 45.4578C345.541 43.2475 346.934 41.9124 349.17 40.3234C352.922 37.6581 354.797 36.3255 357.426 36.064C360.909 35.7177 363.556 37.3817 367.377 39.7828C368.409 40.4314 369.897 40.7434 371.474 40.8623C376.638 41.2514 381.065 44.698 382.47 49.6892C382.577 50.0705 382.667 50.4156 382.735 50.7112C385.507 62.8303 384.733 75.4352 380.939 87.2736C380.837 87.5922 380.752 87.8889 380.686 88.1593C378.923 95.3689 354.714 98.1793 351.883 92.0844C350.099 88.2464 358.433 84.4062 359.677 72.9624C360.543 64.9956 357.531 57.4145 354.9 57.1547Z" fill="#080808"/>
<path d="M281.902 61.3918H78.83V62.4342H281.902V61.3918Z" fill="#E58C53"/>
<path d="M253.234 46.1518H107.499C105.203 46.1518 103.335 44.2814 103.335 41.9824C103.335 39.6834 105.203 37.813 107.499 37.813H253.234C255.53 37.813 257.398 39.6834 257.398 41.9824C257.398 44.2814 255.53 46.1518 253.234 46.1518Z" fill="#E58C53"/>
<path d="M79.28 69.6869C84.1038 69.6869 88.0143 65.7713 88.0143 60.941C88.0143 56.1108 84.1038 52.1951 79.28 52.1951C74.4563 52.1951 70.5458 56.1108 70.5458 60.941C70.5458 65.7713 74.4563 69.6869 79.28 69.6869Z" fill="#E58C53"/>
<path d="M106.155 50.8495C110.978 50.8495 114.889 46.9338 114.889 42.1036C114.889 37.2734 110.978 33.3577 106.155 33.3577C101.331 33.3577 97.4204 37.2734 97.4204 42.1036C97.4204 46.9338 101.331 50.8495 106.155 50.8495Z" fill="#E58C53"/>
<path d="M213.372 158.943H10.2998V159.985H213.372V158.943Z" fill="#B153E5"/>
<path d="M184.704 143.703H38.9685C36.6726 143.703 34.8046 141.832 34.8046 139.533C34.8046 137.234 36.6726 135.364 38.9685 135.364H184.704C186.999 135.364 188.867 137.234 188.867 139.533C188.867 141.832 186.999 143.703 184.704 143.703Z" fill="#B153E5"/>
<path d="M8.73424 167.238C13.558 167.238 17.4685 163.322 17.4685 158.492C17.4685 153.662 13.558 149.746 8.73424 149.746C3.91045 149.746 0 153.662 0 158.492C0 163.322 3.91045 167.238 8.73424 167.238Z" fill="#B153E5"/>
<path d="M35.6088 148.4C40.4326 148.4 44.3431 144.485 44.3431 139.654C44.3431 134.824 40.4326 130.908 35.6088 130.908C30.785 130.908 26.8746 134.824 26.8746 139.654C26.8746 144.485 30.785 148.4 35.6088 148.4Z" fill="#B153E5"/>
<path d="M237.559 266.585H34.4869V267.627H237.559V266.585Z" fill="#E58C53"/>
<path d="M208.891 251.345H63.1556C60.8597 251.345 58.9918 249.475 58.9918 247.176C58.9918 244.877 60.8597 243.006 63.1556 243.006H208.891C211.187 243.006 213.055 244.877 213.055 247.176C213.055 249.475 211.187 251.345 208.891 251.345Z" fill="#E58C53"/>
<path d="M59.1241 255.37C63.9479 255.37 67.8583 251.454 67.8583 246.624C67.8583 241.794 63.9479 237.878 59.1241 237.878C54.3003 237.878 50.3899 241.794 50.3899 246.624C50.3899 251.454 54.3003 255.37 59.1241 255.37Z" fill="#E58C53"/>
<path d="M32.9214 275.553C37.7452 275.553 41.6556 271.637 41.6556 266.807C41.6556 261.977 37.7452 258.061 32.9214 258.061C28.0976 258.061 24.1871 261.977 24.1871 266.807C24.1871 271.637 28.0976 275.553 32.9214 275.553Z" fill="#E58C53"/>
</g>
<defs>
<clipPath id="clip0_70_2449">
<rect width="529" height="389" fill="white"/>
</clipPath>
</defs>
</svg>
