<svg width="72" height="72" viewBox="0 0 72 72" fill="none" xmlns="http://www.w3.org/2000/svg">
<g clip-path="url(#clip0_70_98)">
<path d="M64.125 9.45001C63.3514 8.94953 62.4667 8.64675 61.5486 8.56829C60.6306 8.48982 59.7073 8.63807 58.86 9.00001L31.095 19.935C30.4383 20.2048 29.7349 20.3424 29.025 20.34H11.25C9.75816 20.34 8.32742 20.9326 7.27252 21.9875C6.21763 23.0424 5.625 24.4732 5.625 25.965V26.415H0V39.915H5.625V40.5C5.66025 41.9683 6.26841 43.3646 7.3195 44.3905C8.3706 45.4164 9.78126 45.9904 11.25 45.99L18 60.3C18.4571 61.2637 19.1767 62.0788 20.0761 62.652C20.9756 63.2251 22.0185 63.5329 23.085 63.54H25.92C27.404 63.5281 28.8232 62.9303 29.8684 61.8767C30.9136 60.8231 31.5 59.3991 31.5 57.915V46.53L58.86 57.465C59.5339 57.7297 60.251 57.8671 60.975 57.87C62.0983 57.8493 63.1918 57.5056 64.125 56.88C64.8651 56.3803 65.4757 55.7115 65.906 54.929C66.3364 54.1465 66.5743 53.2727 66.6 52.38V14.085C66.5959 13.1693 66.3683 12.2685 65.937 11.4608C65.5056 10.653 64.8836 9.96279 64.125 9.45001ZM25.875 25.965V40.5H11.25V25.965H25.875ZM25.875 57.915H23.04L17.505 45.99H25.875V57.915ZM33.165 41.175C32.6306 40.9022 32.0735 40.6763 31.5 40.5V25.65C32.0679 25.532 32.6249 25.3664 33.165 25.155L60.975 14.085V52.245L33.165 41.175ZM66.735 27.54V38.79C68.2268 38.79 69.6576 38.1974 70.7125 37.1425C71.7674 36.0876 72.36 34.6569 72.36 33.165C72.36 31.6732 71.7674 30.2424 70.7125 29.1875C69.6576 28.1326 68.2268 27.54 66.735 27.54Z" fill="#B153E5"/>
</g>
<defs>
<clipPath id="clip0_70_98">
<rect width="72" height="72" fill="white"/>
</clipPath>
</defs>
</svg>
