<svg width="199" height="62" viewBox="0 0 199 62" fill="none" xmlns="http://www.w3.org/2000/svg">
<path d="M0 0H184C192.284 0 199 6.71573 199 15V62H0L28 31L0 0Z" fill="#B153E5"/>
<path d="M45.054 38.176C44.6434 38.176 44.328 38.0587 44.108 37.824C43.888 37.5893 43.778 37.2667 43.778 36.856V23.634C43.778 23.2087 43.8954 22.886 44.13 22.666C44.3647 22.4313 44.6874 22.314 45.098 22.314C45.4647 22.314 45.7507 22.3873 45.956 22.534C46.176 22.666 46.374 22.9007 46.55 23.238L51.984 33.292H51.28L56.714 23.238C56.89 22.9007 57.0807 22.666 57.286 22.534C57.4914 22.3873 57.7774 22.314 58.144 22.314C58.5547 22.314 58.87 22.4313 59.09 22.666C59.31 22.886 59.42 23.2087 59.42 23.634V36.856C59.42 37.2667 59.31 37.5893 59.09 37.824C58.8847 38.0587 58.5694 38.176 58.144 38.176C57.7334 38.176 57.418 38.0587 57.198 37.824C56.978 37.5893 56.868 37.2667 56.868 36.856V26.67H57.352L52.732 35.096C52.5854 35.3453 52.4314 35.5287 52.27 35.646C52.1087 35.7633 51.8887 35.822 51.61 35.822C51.3314 35.822 51.104 35.7633 50.928 35.646C50.752 35.514 50.598 35.3307 50.466 35.096L45.802 26.648H46.33V36.856C46.33 37.2667 46.22 37.5893 46 37.824C45.7947 38.0587 45.4794 38.176 45.054 38.176ZM67.4756 38.22C66.361 38.22 65.393 37.9927 64.5716 37.538C63.7503 37.0833 63.1123 36.438 62.6576 35.602C62.203 34.7513 61.9756 33.754 61.9756 32.61C61.9756 31.7447 62.1003 30.9747 62.3496 30.3C62.6136 29.6107 62.9876 29.024 63.4716 28.54C63.9556 28.0413 64.535 27.6673 65.2096 27.418C65.8843 27.154 66.6396 27.022 67.4756 27.022C68.5903 27.022 69.5583 27.2493 70.3796 27.704C71.201 28.1587 71.839 28.804 72.2936 29.64C72.7483 30.476 72.9756 31.466 72.9756 32.61C72.9756 33.4753 72.8436 34.2527 72.5796 34.942C72.3303 35.6313 71.9636 36.2253 71.4796 36.724C70.9956 37.208 70.4163 37.582 69.7416 37.846C69.067 38.0953 68.3116 38.22 67.4756 38.22ZM67.4756 36.13C68.0183 36.13 68.495 35.998 68.9056 35.734C69.3163 35.47 69.6316 35.0813 69.8516 34.568C70.0863 34.04 70.2036 33.3873 70.2036 32.61C70.2036 31.4367 69.9543 30.564 69.4556 29.992C68.957 29.4053 68.297 29.112 67.4756 29.112C66.933 29.112 66.4563 29.244 66.0456 29.508C65.635 29.7573 65.3123 30.146 65.0776 30.674C64.8576 31.1873 64.7476 31.8327 64.7476 32.61C64.7476 33.7687 64.997 34.6487 65.4956 35.25C65.9943 35.8367 66.6543 36.13 67.4756 36.13ZM79.1834 38.22C78.5528 38.22 77.8854 38.154 77.1814 38.022C76.4774 37.89 75.8468 37.6627 75.2894 37.34C75.0548 37.1933 74.8861 37.0247 74.7834 36.834C74.6954 36.6287 74.6588 36.4307 74.6734 36.24C74.7028 36.0347 74.7761 35.8587 74.8934 35.712C75.0254 35.5653 75.1868 35.47 75.3774 35.426C75.5828 35.382 75.8028 35.4187 76.0374 35.536C76.6241 35.8147 77.1741 36.0127 77.6874 36.13C78.2008 36.2327 78.7068 36.284 79.2054 36.284C79.9094 36.284 80.4301 36.1667 80.7674 35.932C81.1194 35.6827 81.2954 35.36 81.2954 34.964C81.2954 34.6267 81.1781 34.37 80.9434 34.194C80.7234 34.0033 80.3861 33.864 79.9314 33.776L77.7314 33.358C76.8221 33.182 76.1254 32.852 75.6414 32.368C75.1721 31.8693 74.9374 31.2313 74.9374 30.454C74.9374 29.75 75.1281 29.1413 75.5094 28.628C75.9054 28.1147 76.4481 27.7187 77.1374 27.44C77.8268 27.1613 78.6188 27.022 79.5134 27.022C80.1588 27.022 80.7601 27.0953 81.3174 27.242C81.8894 27.374 82.4394 27.5867 82.9674 27.88C83.1874 27.9973 83.3341 28.1513 83.4074 28.342C83.4954 28.5327 83.5174 28.7307 83.4734 28.936C83.4294 29.1267 83.3414 29.3027 83.2094 29.464C83.0774 29.6107 82.9088 29.706 82.7034 29.75C82.5128 29.7793 82.2928 29.7353 82.0434 29.618C81.5888 29.3833 81.1488 29.2147 80.7234 29.112C80.3128 29.0093 79.9168 28.958 79.5354 28.958C78.8168 28.958 78.2814 29.0827 77.9294 29.332C77.5921 29.5813 77.4234 29.9113 77.4234 30.322C77.4234 30.63 77.5261 30.8867 77.7314 31.092C77.9368 31.2973 78.2521 31.4367 78.6774 31.51L80.8774 31.928C81.8308 32.104 82.5494 32.4267 83.0334 32.896C83.5321 33.3653 83.7814 33.996 83.7814 34.788C83.7814 35.8587 83.3634 36.702 82.5274 37.318C81.6914 37.9193 80.5768 38.22 79.1834 38.22ZM90.8082 38.22C89.8549 38.22 89.0555 38.0587 88.4102 37.736C87.7795 37.4133 87.3102 36.944 87.0022 36.328C86.6942 35.6973 86.5402 34.92 86.5402 33.996V29.31H85.3962C85.0442 29.31 84.7729 29.222 84.5822 29.046C84.3915 28.8553 84.2962 28.5987 84.2962 28.276C84.2962 27.9387 84.3915 27.682 84.5822 27.506C84.7729 27.33 85.0442 27.242 85.3962 27.242H86.5402V25.24C86.5402 24.7853 86.6575 24.4407 86.8922 24.206C87.1415 23.9713 87.4862 23.854 87.9262 23.854C88.3662 23.854 88.7035 23.9713 88.9382 24.206C89.1729 24.4407 89.2902 24.7853 89.2902 25.24V27.242H91.6222C91.9742 27.242 92.2455 27.33 92.4362 27.506C92.6269 27.682 92.7222 27.9387 92.7222 28.276C92.7222 28.5987 92.6269 28.8553 92.4362 29.046C92.2455 29.222 91.9742 29.31 91.6222 29.31H89.2902V33.842C89.2902 34.546 89.4442 35.074 89.7522 35.426C90.0602 35.778 90.5589 35.954 91.2482 35.954C91.4975 35.954 91.7175 35.932 91.9082 35.888C92.0989 35.844 92.2675 35.8147 92.4142 35.8C92.5902 35.7853 92.7369 35.844 92.8542 35.976C92.9715 36.0933 93.0302 36.3427 93.0302 36.724C93.0302 37.0173 92.9789 37.2813 92.8762 37.516C92.7882 37.736 92.6195 37.89 92.3702 37.978C92.1795 38.0367 91.9302 38.088 91.6222 38.132C91.3142 38.1907 91.0429 38.22 90.8082 38.22ZM101.968 38.176C101.514 38.176 101.162 38.0513 100.912 37.802C100.678 37.538 100.56 37.1787 100.56 36.724V23.92C100.56 23.4507 100.685 23.0987 100.934 22.864C101.184 22.6147 101.536 22.49 101.99 22.49H107.292C108.994 22.49 110.306 22.9153 111.23 23.766C112.154 24.6167 112.616 25.8047 112.616 27.33C112.616 28.8553 112.154 30.0507 111.23 30.916C110.306 31.7667 108.994 32.192 107.292 32.192H103.376V36.724C103.376 37.1787 103.259 37.538 103.024 37.802C102.79 38.0513 102.438 38.176 101.968 38.176ZM103.376 29.97H106.852C107.85 29.97 108.605 29.75 109.118 29.31C109.632 28.8553 109.888 28.1953 109.888 27.33C109.888 26.4647 109.632 25.812 109.118 25.372C108.605 24.932 107.85 24.712 106.852 24.712H103.376V29.97ZM119.017 38.22C117.902 38.22 116.934 37.9927 116.113 37.538C115.291 37.0833 114.653 36.438 114.199 35.602C113.744 34.7513 113.517 33.754 113.517 32.61C113.517 31.7447 113.641 30.9747 113.891 30.3C114.155 29.6107 114.529 29.024 115.013 28.54C115.497 28.0413 116.076 27.6673 116.751 27.418C117.425 27.154 118.181 27.022 119.017 27.022C120.131 27.022 121.099 27.2493 121.921 27.704C122.742 28.1587 123.38 28.804 123.835 29.64C124.289 30.476 124.517 31.466 124.517 32.61C124.517 33.4753 124.385 34.2527 124.121 34.942C123.871 35.6313 123.505 36.2253 123.021 36.724C122.537 37.208 121.957 37.582 121.283 37.846C120.608 38.0953 119.853 38.22 119.017 38.22ZM119.017 36.13C119.559 36.13 120.036 35.998 120.447 35.734C120.857 35.47 121.173 35.0813 121.393 34.568C121.627 34.04 121.745 33.3873 121.745 32.61C121.745 31.4367 121.495 30.564 120.997 29.992C120.498 29.4053 119.838 29.112 119.017 29.112C118.474 29.112 117.997 29.244 117.587 29.508C117.176 29.7573 116.853 30.146 116.619 30.674C116.399 31.1873 116.289 31.8327 116.289 32.61C116.289 33.7687 116.538 34.6487 117.037 35.25C117.535 35.8367 118.195 36.13 119.017 36.13ZM128.15 42.136C127.71 42.136 127.373 42.0187 127.138 41.784C126.904 41.5493 126.786 41.2047 126.786 40.75V28.452C126.786 27.9973 126.904 27.6527 127.138 27.418C127.373 27.1833 127.703 27.066 128.128 27.066C128.568 27.066 128.906 27.1833 129.14 27.418C129.375 27.6527 129.492 27.9973 129.492 28.452V30.168L129.25 29.508C129.47 28.76 129.918 28.1587 130.592 27.704C131.282 27.2493 132.081 27.022 132.99 27.022C133.929 27.022 134.75 27.2493 135.454 27.704C136.173 28.1587 136.73 28.804 137.126 29.64C137.522 30.4613 137.72 31.4513 137.72 32.61C137.72 33.754 137.522 34.7513 137.126 35.602C136.73 36.438 136.18 37.0833 135.476 37.538C134.772 37.9927 133.944 38.22 132.99 38.22C132.096 38.22 131.311 38 130.636 37.56C129.962 37.1053 129.507 36.5187 129.272 35.8H129.536V40.75C129.536 41.2047 129.412 41.5493 129.162 41.784C128.928 42.0187 128.59 42.136 128.15 42.136ZM132.22 36.13C132.763 36.13 133.24 35.998 133.65 35.734C134.061 35.47 134.376 35.0813 134.596 34.568C134.831 34.04 134.948 33.3873 134.948 32.61C134.948 31.4367 134.699 30.564 134.2 29.992C133.702 29.4053 133.042 29.112 132.22 29.112C131.678 29.112 131.201 29.244 130.79 29.508C130.38 29.7573 130.057 30.146 129.822 30.674C129.602 31.1873 129.492 31.8327 129.492 32.61C129.492 33.7687 129.742 34.6487 130.24 35.25C130.739 35.8367 131.399 36.13 132.22 36.13ZM143.872 38.22C142.977 38.22 142.237 38.0587 141.65 37.736C141.063 37.3987 140.623 36.9 140.33 36.24C140.051 35.58 139.912 34.7587 139.912 33.776V28.452C139.912 27.9827 140.029 27.638 140.264 27.418C140.499 27.1833 140.836 27.066 141.276 27.066C141.716 27.066 142.053 27.1833 142.288 27.418C142.537 27.638 142.662 27.9827 142.662 28.452V33.82C142.662 34.5827 142.816 35.1473 143.124 35.514C143.432 35.8807 143.923 36.064 144.598 36.064C145.331 36.064 145.933 35.8147 146.402 35.316C146.871 34.8027 147.106 34.128 147.106 33.292V28.452C147.106 27.9827 147.223 27.638 147.458 27.418C147.693 27.1833 148.03 27.066 148.47 27.066C148.91 27.066 149.247 27.1833 149.482 27.418C149.731 27.638 149.856 27.9827 149.856 28.452V36.768C149.856 37.7067 149.409 38.176 148.514 38.176C148.089 38.176 147.759 38.0587 147.524 37.824C147.289 37.5747 147.172 37.2227 147.172 36.768V35.096L147.48 35.756C147.172 36.548 146.703 37.1567 146.072 37.582C145.456 38.0073 144.723 38.22 143.872 38.22ZM156.392 38.22C155.175 38.22 154.258 37.8753 153.642 37.186C153.026 36.482 152.718 35.4553 152.718 34.106V23.7C152.718 23.2453 152.835 22.9007 153.07 22.666C153.305 22.4313 153.642 22.314 154.082 22.314C154.522 22.314 154.859 22.4313 155.094 22.666C155.343 22.9007 155.468 23.2453 155.468 23.7V33.974C155.468 34.6487 155.607 35.1473 155.886 35.47C156.179 35.7927 156.59 35.954 157.118 35.954C157.235 35.954 157.345 35.954 157.448 35.954C157.551 35.9393 157.653 35.9247 157.756 35.91C157.961 35.8807 158.101 35.9393 158.174 36.086C158.247 36.218 158.284 36.4967 158.284 36.922C158.284 37.2887 158.211 37.5747 158.064 37.78C157.917 37.9853 157.675 38.11 157.338 38.154C157.191 38.1687 157.037 38.1833 156.876 38.198C156.715 38.2127 156.553 38.22 156.392 38.22ZM163.285 38.22C162.508 38.22 161.811 38.0733 161.195 37.78C160.594 37.472 160.117 37.0613 159.765 36.548C159.428 36.0347 159.259 35.4553 159.259 34.81C159.259 34.018 159.465 33.3947 159.875 32.94C160.286 32.4707 160.953 32.1333 161.877 31.928C162.801 31.7227 164.041 31.62 165.595 31.62H166.695V33.204H165.617C164.708 33.204 163.982 33.248 163.439 33.336C162.897 33.424 162.508 33.578 162.273 33.798C162.053 34.0033 161.943 34.2967 161.943 34.678C161.943 35.162 162.112 35.558 162.449 35.866C162.787 36.174 163.256 36.328 163.857 36.328C164.341 36.328 164.767 36.218 165.133 35.998C165.515 35.7633 165.815 35.448 166.035 35.052C166.255 34.656 166.365 34.2013 166.365 33.688V31.158C166.365 30.4247 166.204 29.8967 165.881 29.574C165.559 29.2513 165.016 29.09 164.253 29.09C163.828 29.09 163.366 29.1413 162.867 29.244C162.383 29.3467 161.87 29.5227 161.327 29.772C161.049 29.904 160.799 29.9407 160.579 29.882C160.374 29.8233 160.213 29.706 160.095 29.53C159.978 29.3393 159.919 29.134 159.919 28.914C159.919 28.694 159.978 28.4813 160.095 28.276C160.213 28.056 160.411 27.8947 160.689 27.792C161.364 27.5133 162.009 27.3153 162.625 27.198C163.256 27.0807 163.828 27.022 164.341 27.022C165.397 27.022 166.263 27.1833 166.937 27.506C167.627 27.8287 168.14 28.32 168.477 28.98C168.815 29.6253 168.983 30.4613 168.983 31.488V36.768C168.983 37.2227 168.873 37.5747 168.653 37.824C168.433 38.0587 168.118 38.176 167.707 38.176C167.297 38.176 166.974 38.0587 166.739 37.824C166.519 37.5747 166.409 37.2227 166.409 36.768V35.712H166.585C166.483 36.2253 166.277 36.6727 165.969 37.054C165.676 37.4207 165.302 37.7067 164.847 37.912C164.393 38.1173 163.872 38.22 163.285 38.22ZM173.183 38.176C172.728 38.176 172.376 38.0587 172.127 37.824C171.892 37.5747 171.775 37.2227 171.775 36.768V28.452C171.775 27.9973 171.892 27.6527 172.127 27.418C172.361 27.1833 172.691 27.066 173.117 27.066C173.542 27.066 173.872 27.1833 174.107 27.418C174.341 27.6527 174.459 27.9973 174.459 28.452V29.838H174.239C174.444 28.958 174.847 28.2907 175.449 27.836C176.05 27.3813 176.849 27.11 177.847 27.022C178.155 26.9927 178.397 27.0733 178.573 27.264C178.763 27.44 178.873 27.7187 178.903 28.1C178.932 28.4667 178.844 28.7673 178.639 29.002C178.448 29.222 178.155 29.354 177.759 29.398L177.275 29.442C176.38 29.53 175.705 29.8087 175.251 30.278C174.796 30.7327 174.569 31.378 174.569 32.214V36.768C174.569 37.2227 174.451 37.5747 174.217 37.824C173.982 38.0587 173.637 38.176 173.183 38.176Z" fill="white"/>
</svg>
