<svg width="29" height="29" viewBox="0 0 29 29" fill="none" xmlns="http://www.w3.org/2000/svg">
<path d="M7.25 26.5837V4.83366C7.25 4.19272 7.50461 3.57803 7.95783 3.12482C8.41104 2.6716 9.02573 2.41699 9.66667 2.41699H19.3333C19.9743 2.41699 20.589 2.6716 21.0422 3.12482C21.4954 3.57803 21.75 4.19272 21.75 4.83366V26.5837H7.25Z" stroke="#E58C53" stroke-width="2.41667" stroke-linecap="round" stroke-linejoin="round"/>
<path d="M7.24999 14.5H4.83332C4.19238 14.5 3.57769 14.7546 3.12448 15.2078C2.67127 15.661 2.41666 16.2757 2.41666 16.9167V24.1667C2.41666 24.8076 2.67127 25.4223 3.12448 25.8755C3.57769 26.3287 4.19238 26.5833 4.83332 26.5833H7.24999" stroke="#E58C53" stroke-width="2.41667" stroke-linecap="round" stroke-linejoin="round"/>
<path d="M21.75 10.875H24.1667C24.8076 10.875 25.4223 11.1296 25.8755 11.5828C26.3287 12.036 26.5833 12.6507 26.5833 13.2917V24.1667C26.5833 24.8076 26.3287 25.4223 25.8755 25.8755C25.4223 26.3287 24.8076 26.5833 24.1667 26.5833H21.75" stroke="#E58C53" stroke-width="2.41667" stroke-linecap="round" stroke-linejoin="round"/>
<path d="M12.0833 7.25H16.9167" stroke="#E58C53" stroke-width="2.41667" stroke-linecap="round" stroke-linejoin="round"/>
<path d="M12.0833 12.083H16.9167" stroke="#E58C53" stroke-width="2.41667" stroke-linecap="round" stroke-linejoin="round"/>
<path d="M12.0833 16.917H16.9167" stroke="#E58C53" stroke-width="2.41667" stroke-linecap="round" stroke-linejoin="round"/>
<path d="M12.0833 21.75H16.9167" stroke="#E58C53" stroke-width="2.41667" stroke-linecap="round" stroke-linejoin="round"/>
</svg>
