<svg width="26" height="26" viewBox="0 0 26 26" fill="none" xmlns="http://www.w3.org/2000/svg">
<path d="M16.2499 2.16602H6.49986C5.92522 2.16602 5.37412 2.39429 4.96779 2.80062C4.56146 3.20695 4.33319 3.75805 4.33319 4.33268V21.666C4.33319 22.2407 4.56146 22.7918 4.96779 23.1981C5.37412 23.6044 5.92522 23.8327 6.49986 23.8327H19.4999C20.0745 23.8327 20.6256 23.6044 21.0319 23.1981C21.4383 22.7918 21.6665 22.2407 21.6665 21.666V7.58268L16.2499 2.16602Z" stroke="#E58C53" stroke-width="2.02688" stroke-linecap="round" stroke-linejoin="round"/>
<path d="M15.1668 2.16602V6.49935C15.1668 7.07398 15.3951 7.62509 15.8014 8.03141C16.2077 8.43774 16.7588 8.66602 17.3335 8.66602H21.6668" stroke="#E58C53" stroke-width="2.02688" stroke-linecap="round" stroke-linejoin="round"/>
<path d="M10.8335 9.75H8.66681" stroke="#E58C53" stroke-width="2.02688" stroke-linecap="round" stroke-linejoin="round"/>
<path d="M17.3335 14.084H8.66681" stroke="#E58C53" stroke-width="2.02688" stroke-linecap="round" stroke-linejoin="round"/>
<path d="M17.3335 18.416H8.66681" stroke="#E58C53" stroke-width="2.02688" stroke-linecap="round" stroke-linejoin="round"/>
</svg>
