<svg width="28" height="28" viewBox="0 0 28 28" fill="none" xmlns="http://www.w3.org/2000/svg">
<path d="M12.8333 15.1668H6.99992C6.66937 15.1668 6.39248 15.0548 6.16926 14.8308C5.94603 14.6068 5.83403 14.3299 5.83326 14.0002C5.83248 13.6704 5.94448 13.3935 6.16926 13.1695C6.39403 12.9455 6.67092 12.8335 6.99992 12.8335H12.8333V7.00017C12.8333 6.66961 12.9453 6.39272 13.1693 6.1695C13.3933 5.94628 13.6701 5.83428 13.9999 5.8335C14.3297 5.83272 14.607 5.94472 14.8318 6.1695C15.0565 6.39428 15.1681 6.67117 15.1666 7.00017V12.8335H20.9999C21.3305 12.8335 21.6078 12.9455 21.8318 13.1695C22.0558 13.3935 22.1674 13.6704 22.1666 14.0002C22.1658 14.3299 22.0538 14.6072 21.8306 14.832C21.6074 15.0568 21.3305 15.1684 20.9999 15.1668H15.1666V21.0002C15.1666 21.3307 15.0546 21.608 14.8306 21.832C14.6066 22.056 14.3297 22.1676 13.9999 22.1668C13.6701 22.1661 13.3933 22.0541 13.1693 21.8308C12.9453 21.6076 12.8333 21.3307 12.8333 21.0002V15.1668Z" fill="#B153E5"/>
</svg>
