<svg width="28" height="28" viewBox="0 0 28 28" fill="none" xmlns="http://www.w3.org/2000/svg">
<path d="M12.8333 15.1666H6.99992C6.66937 15.1666 6.39248 15.0546 6.16926 14.8306C5.94603 14.6066 5.83403 14.3297 5.83326 13.9999C5.83248 13.6701 5.94448 13.3933 6.16926 13.1693C6.39403 12.9453 6.67092 12.8333 6.99992 12.8333H12.8333V6.99992C12.8333 6.66937 12.9453 6.39248 13.1693 6.16926C13.3933 5.94603 13.6701 5.83403 13.9999 5.83326C14.3297 5.83248 14.607 5.94448 14.8318 6.16926C15.0565 6.39403 15.1681 6.67092 15.1666 6.99992V12.8333H20.9999C21.3305 12.8333 21.6078 12.9453 21.8318 13.1693C22.0558 13.3933 22.1674 13.6701 22.1666 13.9999C22.1658 14.3297 22.0538 14.607 21.8306 14.8318C21.6074 15.0565 21.3305 15.1681 20.9999 15.1666H15.1666V20.9999C15.1666 21.3305 15.0546 21.6078 14.8306 21.8318C14.6066 22.0558 14.3297 22.1674 13.9999 22.1666C13.6701 22.1658 13.3933 22.0538 13.1693 21.8306C12.9453 21.6074 12.8333 21.3305 12.8333 20.9999V15.1666Z" fill="#B153E5"/>
</svg>
