<svg width="26" height="26" viewBox="0 0 26 26" fill="none" xmlns="http://www.w3.org/2000/svg">
<path d="M15.9479 24.5483C20.7654 23.3241 24.4109 19.163 24.868 14.0833H19.4719C19.2704 17.9259 18.0029 21.5009 15.9479 24.5483ZM24.868 11.9166C24.4109 6.8358 20.7622 2.67363 15.9435 1.44947C17.9997 4.49797 19.2694 8.07297 19.4719 11.9166H24.868ZM10.0578 1.44947C5.23694 2.67363 1.59044 6.8358 1.1311 11.9166H6.52827C6.73085 8.07297 8.00052 4.49797 10.0578 1.44947ZM1.13219 14.0833C1.35718 16.535 2.33533 18.857 3.93242 20.7306C5.5295 22.6043 7.66726 23.9379 10.0524 24.5483C7.99727 21.5009 6.72977 17.9259 6.52827 14.0833H1.13219ZM13.0001 24.8755C10.5009 21.8584 8.93544 18.136 8.69927 14.0833H17.302C17.0637 18.135 15.4994 21.8584 13.0012 24.8755M13.0001 1.12988C15.4994 4.14588 17.0626 7.86713 17.3009 11.9166H8.69927C8.9376 7.86713 10.5019 4.14588 13.0001 1.12988Z" fill="#6B6B6B"/>
</svg>
