<svg width="19" height="19" viewBox="0 0 19 19" fill="none" xmlns="http://www.w3.org/2000/svg">
<path d="M9.5268 10.039C9.49826 9.96741 9.49134 9.88902 9.50688 9.81353C9.52242 9.73803 9.55975 9.66875 9.61425 9.61425C9.66875 9.55975 9.73803 9.52242 9.81353 9.50688C9.88902 9.49134 9.96741 9.49826 10.039 9.5268L17.164 12.2976C17.2404 12.3275 17.3056 12.3803 17.3507 12.4488C17.3957 12.5174 17.4184 12.5982 17.4155 12.6802C17.4127 12.7621 17.3844 12.8412 17.3347 12.9064C17.2849 12.9716 17.2162 13.0197 17.1379 13.0442L14.4114 13.8897C14.2884 13.9277 14.1765 13.9952 14.0854 14.0862C13.9944 14.1773 13.9269 14.2892 13.8889 14.4122L13.0442 17.1379C13.0197 17.2162 12.9716 17.2849 12.9064 17.3347C12.8412 17.3844 12.7621 17.4127 12.6802 17.4155C12.5982 17.4184 12.5174 17.3957 12.4488 17.3507C12.3803 17.3056 12.3275 17.2404 12.2976 17.164L9.5268 10.039Z" stroke="#2E9E5D" stroke-width="1.58333" stroke-linecap="round" stroke-linejoin="round"/>
<path d="M3.95825 13.4584C3.95825 10.9388 4.95914 8.52246 6.74074 6.74086C8.52233 4.95926 10.9387 3.95837 13.4583 3.95837" stroke="#2E9E5D" stroke-width="1.58333" stroke-linecap="round" stroke-linejoin="round"/>
<path d="M15.0416 5.54167C15.916 5.54167 16.6249 4.83278 16.6249 3.95833C16.6249 3.08388 15.916 2.375 15.0416 2.375C14.1671 2.375 13.4583 3.08388 13.4583 3.95833C13.4583 4.83278 14.1671 5.54167 15.0416 5.54167Z" stroke="#2E9E5D" stroke-width="1.58333" stroke-linecap="round" stroke-linejoin="round"/>
<path d="M3.95833 16.625C4.83278 16.625 5.54167 15.9162 5.54167 15.0417C5.54167 14.1673 4.83278 13.4584 3.95833 13.4584C3.08388 13.4584 2.375 14.1673 2.375 15.0417C2.375 15.9162 3.08388 16.625 3.95833 16.625Z" stroke="#2E9E5D" stroke-width="1.58333" stroke-linecap="round" stroke-linejoin="round"/>
</svg>
