<svg width="25" height="25" viewBox="0 0 25 25" fill="none" xmlns="http://www.w3.org/2000/svg">
<path d="M16.709 11.1488L18.7361 13.1759L22.7903 9.1217" stroke="#444444" stroke-width="2" stroke-linecap="round" stroke-linejoin="round"/>
<path d="M16.7087 21.2841V19.2571C16.7087 18.1818 16.2815 17.1506 15.5212 16.3903C14.7609 15.63 13.7297 15.2029 12.6545 15.2029H6.57322C5.49799 15.2029 4.46679 15.63 3.70648 16.3903C2.94618 17.1506 2.51904 18.1818 2.51904 19.2571V21.2841" stroke="#444444" stroke-width="2" stroke-linecap="round" stroke-linejoin="round"/>
<path d="M9.61424 11.1488C11.8533 11.1488 13.6684 9.33365 13.6684 7.09458C13.6684 4.85552 11.8533 3.04041 9.61424 3.04041C7.37518 3.04041 5.56006 4.85552 5.56006 7.09458C5.56006 9.33365 7.37518 11.1488 9.61424 11.1488Z" stroke="#444444" stroke-width="2" stroke-linecap="round" stroke-linejoin="round"/>
</svg>
