<svg width="30" height="30" viewBox="0 0 30 30" fill="none" xmlns="http://www.w3.org/2000/svg">
<path d="M18.1698 27.1076C18.2172 27.2259 18.2998 27.3269 18.4063 27.397C18.5129 27.4671 18.6383 27.5029 18.7658 27.4996C18.8933 27.4964 19.0167 27.4542 19.1195 27.3787C19.2224 27.3033 19.2996 27.1982 19.341 27.0776L27.466 3.32757C27.506 3.21681 27.5136 3.09695 27.488 2.98201C27.4624 2.86707 27.4046 2.76181 27.3213 2.67854C27.238 2.59527 27.1328 2.53744 27.0178 2.51181C26.9029 2.48618 26.783 2.49382 26.6723 2.53382L2.92226 10.6588C2.80163 10.7002 2.69654 10.7775 2.6211 10.8803C2.54565 10.9831 2.50347 11.1065 2.50021 11.234C2.49694 11.3615 2.53275 11.4869 2.60283 11.5935C2.67291 11.7 2.7739 11.7826 2.89226 11.8301L12.8048 15.8051C13.1181 15.9305 13.4028 16.1181 13.6417 16.3566C13.8806 16.5951 14.0687 16.8794 14.1948 17.1926L18.1698 27.1076Z" stroke="#B153E5" stroke-width="2.16667" stroke-linecap="round" stroke-linejoin="round"/>
<path d="M27.3176 2.68372L13.6426 16.3575" stroke="#B153E5" stroke-width="2.16667" stroke-linecap="round" stroke-linejoin="round"/>
</svg>
