<svg width="25" height="25" viewBox="0 0 25 25" fill="none" xmlns="http://www.w3.org/2000/svg">
<path d="M12.8778 2.35181H12.4319C11.8943 2.35181 11.3787 2.56537 10.9985 2.94553C10.6184 3.32568 10.4048 3.84128 10.4048 4.3789V4.56133C10.4044 4.91681 10.3106 5.26594 10.1327 5.5737C9.95479 5.88146 9.69909 6.13703 9.39124 6.31477L8.95542 6.56815C8.64726 6.74607 8.2977 6.83973 7.94187 6.83973C7.58605 6.83973 7.23649 6.74607 6.92833 6.56815L6.7763 6.48707C6.31115 6.21875 5.75853 6.14595 5.23977 6.28467C4.721 6.42339 4.27847 6.76228 4.00932 7.22696L3.78634 7.6121C3.51802 8.07725 3.44523 8.62987 3.58394 9.14864C3.72266 9.6674 4.06155 10.1099 4.52623 10.3791L4.67826 10.4804C4.98463 10.6573 5.23938 10.9113 5.41719 11.2171C5.59499 11.5229 5.68967 11.87 5.69181 12.2237V12.7406C5.69322 13.0978 5.60023 13.4491 5.42225 13.7588C5.24426 14.0684 4.9876 14.3256 4.67826 14.5042L4.52623 14.5954C4.06155 14.8646 3.72266 15.3071 3.58394 15.8259C3.44523 16.3446 3.51802 16.8973 3.78634 17.3624L4.00932 17.7476C4.27847 18.2122 4.721 18.5511 5.23977 18.6898C5.75853 18.8286 6.31115 18.7558 6.7763 18.4874L6.92833 18.4064C7.23649 18.2284 7.58605 18.1348 7.94187 18.1348C8.2977 18.1348 8.64726 18.2284 8.95542 18.4064L9.39124 18.6597C9.69909 18.8375 9.95479 19.093 10.1327 19.4008C10.3106 19.7086 10.4044 20.0577 10.4048 20.4132V20.5956C10.4048 21.1332 10.6184 21.6488 10.9985 22.029C11.3787 22.4091 11.8943 22.6227 12.4319 22.6227H12.8778C13.4155 22.6227 13.9311 22.4091 14.3112 22.029C14.6914 21.6488 14.9049 21.1332 14.9049 20.5956V20.4132C14.9053 20.0577 14.9991 19.7086 15.177 19.4008C15.3549 19.093 15.6106 18.8375 15.9185 18.6597L16.3543 18.4064C16.6625 18.2284 17.012 18.1348 17.3678 18.1348C17.7237 18.1348 18.0732 18.2284 18.3814 18.4064L18.5334 18.4874C18.9986 18.7558 19.5512 18.8286 20.0699 18.6898C20.5887 18.5511 21.0312 18.2122 21.3004 17.7476L21.5234 17.3523C21.7917 16.8871 21.8645 16.3345 21.7258 15.8157C21.5871 15.297 21.2482 14.8544 20.7835 14.5853L20.6315 14.5042C20.3221 14.3256 20.0655 14.0684 19.8875 13.7588C19.7095 13.4491 19.6165 13.0978 19.6179 12.7406V12.2339C19.6165 11.8767 19.7095 11.5254 19.8875 11.2158C20.0655 10.9061 20.3221 10.6489 20.6315 10.4703L20.7835 10.3791C21.2482 10.1099 21.5871 9.6674 21.7258 9.14864C21.8645 8.62987 21.7917 8.07725 21.5234 7.6121L21.3004 7.22696C21.0312 6.76228 20.5887 6.42339 20.0699 6.28467C19.5512 6.14595 18.9986 6.21875 18.5334 6.48707L18.3814 6.56815C18.0732 6.74607 17.7237 6.83973 17.3678 6.83973C17.012 6.83973 16.6625 6.74607 16.3543 6.56815L15.9185 6.31477C15.6106 6.13703 15.3549 5.88146 15.177 5.5737C14.9991 5.26594 14.9053 4.91681 14.9049 4.56133V4.3789C14.9049 3.84128 14.6914 3.32568 14.3112 2.94553C13.9311 2.56537 13.4155 2.35181 12.8778 2.35181Z" stroke="#444444" stroke-width="2" stroke-linecap="round" stroke-linejoin="round"/>
<path d="M12.6549 15.5279C14.3342 15.5279 15.6955 14.1666 15.6955 12.4873C15.6955 10.808 14.3342 9.44666 12.6549 9.44666C10.9756 9.44666 9.61426 10.808 9.61426 12.4873C9.61426 14.1666 10.9756 15.5279 12.6549 15.5279Z" stroke="#444444" stroke-width="2" stroke-linecap="round" stroke-linejoin="round"/>
</svg>
