<svg width="36" height="36" viewBox="0 0 36 36" fill="none" xmlns="http://www.w3.org/2000/svg">
<path d="M22.0814 33.99C28.7519 32.295 33.7994 26.5335 34.4324 19.5H26.9609C26.6819 24.8205 24.9269 29.7705 22.0814 33.99ZM34.4324 16.5C33.7994 9.46495 28.7474 3.70195 22.0754 2.00695C24.9224 6.22795 26.6804 11.178 26.9609 16.5H34.4324ZM13.9259 2.00695C7.25092 3.70195 2.20192 9.46495 1.56592 16.5H9.03892C9.31942 11.178 11.0774 6.22795 13.9259 2.00695ZM1.56742 19.5C1.87895 22.8946 3.23331 26.1096 5.44466 28.7039C7.65601 31.2983 10.616 33.1447 13.9184 33.99C11.0729 29.7705 9.31792 24.8205 9.03892 19.5H1.56742ZM17.9999 34.443C14.5394 30.2655 12.3719 25.1115 12.0449 19.5H23.9564C23.6264 25.11 21.4604 30.2655 18.0014 34.443M17.9999 1.56445C21.4604 5.74045 23.6249 10.893 23.9549 16.5H12.0449C12.3749 10.893 14.5409 5.74045 17.9999 1.56445Z" fill="#B153E5"/>
</svg>
