<svg width="19" height="19" viewBox="0 0 19 19" fill="none" xmlns="http://www.w3.org/2000/svg">
<g clip-path="url(#clip0_657_773)">
<path d="M10.2918 5.54175L6.88759 2.13759C6.53005 1.78178 6.04617 1.58203 5.54175 1.58203C5.03734 1.58203 4.55346 1.78178 4.19592 2.13759L2.13759 4.19592C1.78178 4.55346 1.58203 5.03734 1.58203 5.54175C1.58203 6.04617 1.78178 6.53005 2.13759 6.88759L5.54175 10.2918" stroke="#842CC0" stroke-width="1.58333" stroke-linecap="round" stroke-linejoin="round"/>
<path d="M6.3335 4.74996L7.91683 3.16663" stroke="#842CC0" stroke-width="1.58333" stroke-linecap="round" stroke-linejoin="round"/>
<path d="M14.25 12.6667L15.8333 11.0834" stroke="#842CC0" stroke-width="1.58333" stroke-linecap="round" stroke-linejoin="round"/>
<path d="M13.4585 8.70837L16.8627 12.1125C17.6068 12.8567 17.6068 14.06 16.8627 14.8042L14.8043 16.8625C14.0602 17.6067 12.8568 17.6067 12.1127 16.8625L8.7085 13.4584" stroke="#842CC0" stroke-width="1.58333" stroke-linecap="round" stroke-linejoin="round"/>
<path d="M16.7629 5.39293C17.1814 4.97448 17.4166 4.40688 17.4167 3.81502C17.4168 3.22316 17.1817 2.65551 16.7633 2.23695C16.3448 1.81839 15.7772 1.5832 15.1853 1.58313C14.5935 1.58306 14.0258 1.8181 13.6073 2.23656L3.04169 12.8045C2.85788 12.9878 2.72195 13.2134 2.64586 13.4616L1.60007 16.9069C1.57961 16.9754 1.57806 17.0481 1.5956 17.1174C1.61313 17.1867 1.64909 17.2499 1.69966 17.3004C1.75023 17.3509 1.81352 17.3867 1.88282 17.4042C1.95212 17.4216 2.02485 17.4199 2.09328 17.3993L5.5394 16.3543C5.78733 16.2789 6.01296 16.1438 6.19649 15.9609L16.7629 5.39293Z" stroke="#842CC0" stroke-width="1.58333" stroke-linecap="round" stroke-linejoin="round"/>
<path d="M11.875 3.95837L15.0417 7.12504" stroke="#842CC0" stroke-width="1.58333" stroke-linecap="round" stroke-linejoin="round"/>
</g>
<defs>
<clipPath id="clip0_657_773">
<rect width="19" height="19" fill="white"/>
</clipPath>
</defs>
</svg>
