<svg width="48" height="48" viewBox="0 0 48 48" fill="none" xmlns="http://www.w3.org/2000/svg">
<path d="M38 6H10C7.79086 6 6 7.79086 6 10V38C6 40.2091 7.79086 42 10 42H38C40.2091 42 42 40.2091 42 38V10C42 7.79086 40.2091 6 38 6Z" stroke="#BDBDBD" stroke-width="4" stroke-linecap="round" stroke-linejoin="round"/>
<path d="M18 22.001C20.2091 22.001 22 20.2101 22 18.001C22 15.7918 20.2091 14.001 18 14.001C15.7909 14.001 14 15.7918 14 18.001C14 20.2101 15.7909 22.001 18 22.001Z" stroke="#BDBDBD" stroke-width="4" stroke-linecap="round" stroke-linejoin="round"/>
<path d="M42 29.9984L35.828 23.8264C35.0779 23.0765 34.0607 22.6553 33 22.6553C31.9393 22.6553 30.9221 23.0765 30.172 23.8264L12 41.9984" stroke="#BDBDBD" stroke-width="4" stroke-linecap="round" stroke-linejoin="round"/>
</svg>
