<svg width="20" height="19" viewBox="0 0 20 19" fill="none" xmlns="http://www.w3.org/2000/svg">
<path d="M10.5963 5.54175L7.26773 2.13759C6.91814 1.78178 6.44501 1.58203 5.95181 1.58203C5.4586 1.58203 4.98547 1.78178 4.63588 2.13759L2.62329 4.19592C2.27539 4.55346 2.08008 5.03734 2.08008 5.54175C2.08008 6.04617 2.27539 6.53005 2.62329 6.88759L5.95181 10.2918" stroke="#842CC0" stroke-width="1.58333" stroke-linecap="round" stroke-linejoin="round"/>
<path d="M6.72583 4.74996L8.27398 3.16663" stroke="#842CC0" stroke-width="1.58333" stroke-linecap="round" stroke-linejoin="round"/>
<path d="M14.4666 12.6667L16.0147 11.0834" stroke="#842CC0" stroke-width="1.58333" stroke-linecap="round" stroke-linejoin="round"/>
<path d="M13.6925 8.70837L17.0211 12.1125C17.7487 12.8567 17.7487 14.06 17.0211 14.8042L15.0085 16.8625C14.2808 17.6067 13.1042 17.6067 12.3766 16.8625L9.0481 13.4584" stroke="#842CC0" stroke-width="1.58333" stroke-linecap="round" stroke-linejoin="round"/>
<path d="M16.9233 5.39293C17.3326 4.97448 17.5626 4.40688 17.5626 3.81502C17.5627 3.22316 17.3329 2.65551 16.9237 2.23695C16.5146 1.81839 15.9596 1.5832 15.3809 1.58313C14.8022 1.58306 14.2471 1.8181 13.8379 2.23656L3.50709 12.8045C3.32737 12.9878 3.19445 13.2134 3.12006 13.4616L2.0975 16.9069C2.0775 16.9754 2.07599 17.0481 2.09313 17.1174C2.11027 17.1867 2.14543 17.2499 2.19488 17.3004C2.24432 17.3509 2.30621 17.3867 2.37397 17.4042C2.44173 17.4216 2.51284 17.4199 2.57975 17.3993L5.9493 16.3543C6.19171 16.2789 6.41233 16.1438 6.59178 15.9609L16.9233 5.39293Z" stroke="#842CC0" stroke-width="1.58333" stroke-linecap="round" stroke-linejoin="round"/>
<path d="M12.1443 3.95837L15.2406 7.12504" stroke="#842CC0" stroke-width="1.58333" stroke-linecap="round" stroke-linejoin="round"/>
</svg>
