<svg width="32" height="32" viewBox="0 0 32 32" fill="none" xmlns="http://www.w3.org/2000/svg">
<path d="M5.33349 18.6666C5.08117 18.6674 4.83379 18.5967 4.62009 18.4625C4.40639 18.3284 4.23513 18.1364 4.12622 17.9088C4.01731 17.6812 3.97521 17.4273 4.00482 17.1768C4.03443 16.9262 4.13453 16.6892 4.29349 16.4932L17.4935 2.89323C17.5925 2.77893 17.7274 2.7017 17.8761 2.6742C18.0248 2.6467 18.1785 2.67058 18.3118 2.7419C18.4451 2.81322 18.5503 2.92775 18.6099 3.0667C18.6696 3.20565 18.6803 3.36076 18.6402 3.50656L16.0802 11.5332C16.0047 11.7353 15.9793 11.9526 16.0063 12.1666C16.0332 12.3806 16.1117 12.5848 16.2349 12.7618C16.3582 12.9388 16.5225 13.0832 16.7139 13.1828C16.9052 13.2823 17.1178 13.3339 17.3335 13.3332H26.6668C26.9191 13.3324 27.1665 13.4031 27.3802 13.5373C27.5939 13.6714 27.7652 13.8634 27.8741 14.091C27.983 14.3186 28.0251 14.5724 27.9955 14.823C27.9659 15.0736 27.8658 15.3106 27.7068 15.5066L14.5068 29.1066C14.4078 29.2208 14.2729 29.2981 14.1242 29.3256C13.9755 29.3531 13.8219 29.3292 13.6885 29.2579C13.5552 29.1866 13.45 29.072 13.3904 28.9331C13.3307 28.7941 13.32 28.639 13.3602 28.4932L15.9202 20.4666C15.9956 20.2645 16.021 20.0472 15.994 19.8332C15.9671 19.6192 15.8886 19.415 15.7654 19.238C15.6421 19.061 15.4778 18.9165 15.2865 18.817C15.0951 18.7175 14.8825 18.6659 14.6668 18.6666H5.33349Z" stroke="#B153E5" stroke-width="2.66667" stroke-linecap="round" stroke-linejoin="round"/>
</svg>
